<svg width="197" height="43" viewBox="0 0 197 43" fill="none" xmlns="http://www.w3.org/2000/svg">
<path d="M19.4355 39.2188C18.0684 39.6745 16.3431 39.9023 14.2598 39.9023C12.1764 39.9023 9.70247 39.6419 6.83789 39.1211L7.00879 41.0742C7.00879 41.3672 6.82161 41.5137 6.44727 41.5137L2.24805 41.6357C1.62956 41.6032 1.28776 41.2858 1.22266 40.6836L0.294922 31.2354C0.294922 30.9098 0.490234 30.7308 0.880859 30.6982L5.66602 30.2588C5.97526 30.2588 6.14616 30.446 6.17871 30.8203L6.49609 34.7754C8.83984 35.0195 11.1755 35.1416 13.5029 35.1416C15.8304 35.1416 17.458 34.751 18.3857 33.9697C19.3135 33.1722 19.7773 31.9759 19.7773 30.3809C19.7773 28.9486 19.2321 27.7767 18.1416 26.8652C17.5719 26.377 16.8314 25.8968 15.9199 25.4248L9.23047 22.1777C6.87044 21.0547 5.25098 20.1595 4.37207 19.4922C3.49316 18.8086 2.81771 18.1413 2.3457 17.4902C1.40169 16.1719 0.929688 14.6257 0.929688 12.8516C0.929688 11.0612 1.20638 9.53939 1.75977 8.28613C2.31315 7.0166 3.0944 5.92611 4.10352 5.01465C6.2194 3.0778 8.90495 2.10938 12.1602 2.10938C14.4714 2.10938 16.9779 2.47559 19.6797 3.20801C21.763 2.57324 23.0651 2.25586 23.5859 2.25586C24.123 2.25586 24.4079 2.47559 24.4404 2.91504L23.9521 13.0469C23.9196 13.4212 23.7894 13.6084 23.5615 13.6084L19.46 13.4619C19.2321 13.4456 19.0938 13.3887 19.0449 13.291C18.9961 13.1934 18.9635 13.0387 18.9473 12.8271L18.752 7.45605C16.8151 7.00033 15.2038 6.77246 13.918 6.77246C10.679 6.77246 8.47363 7.67578 7.30176 9.48242C6.87858 10.1335 6.66699 10.9066 6.66699 11.8018C6.66699 12.6807 6.87858 13.4131 7.30176 13.999C7.72493 14.585 8.33529 15.1383 9.13281 15.6592C9.93034 16.1637 10.9069 16.6764 12.0625 17.1973L16.0664 19.0283C19.8262 20.7699 22.3327 22.3242 23.5859 23.6914C24.9531 25.1725 25.6367 27.2477 25.6367 29.917C25.6367 34.7184 23.5697 37.819 19.4355 39.2188ZM42.043 39.8535C41.2617 39.9023 40.1061 39.9268 38.5762 39.9268C37.0625 39.9268 35.8255 39.7721 34.8652 39.4629C33.9212 39.1536 33.14 38.6572 32.5215 37.9736C31.3008 36.6227 30.6904 34.4499 30.6904 31.4551C30.6904 29.5182 30.7148 27.6709 30.7637 25.9131C30.8288 24.139 30.8776 22.5684 30.9102 21.2012C30.959 19.8177 31.0078 18.4505 31.0566 17.0996L27.8096 16.8555C27.484 16.8392 27.3213 16.6195 27.3213 16.1963L27.2969 13.3887C27.2969 13.0306 27.4759 12.8516 27.834 12.8516L31.252 12.7783C31.2845 11.932 31.3171 11.1263 31.3496 10.3613L31.5449 6.6748C31.5938 5.81217 31.6589 5.32389 31.7402 5.20996C31.8216 5.07975 31.9681 4.99837 32.1797 4.96582L36.7207 4.42871C37.0625 4.42871 37.2334 4.60775 37.2334 4.96582C37.2334 5.48665 37.1439 6.66667 36.9648 8.50586L36.5986 12.6318L46.1689 12.3633C46.527 12.3633 46.7061 12.5586 46.7061 12.9492V16.9287C46.7061 17.2542 46.527 17.4251 46.1689 17.4414L36.2812 17.0264C36.0046 20.835 35.8662 24.1553 35.8662 26.9873C35.8662 29.8193 35.9232 31.6504 36.0371 32.4805C36.1673 33.3105 36.3952 33.9535 36.7207 34.4092C37.2741 35.1904 38.4541 35.5811 40.2607 35.5811C40.7816 35.5811 41.2536 35.5648 41.6768 35.5322C41.6279 34.9626 41.6035 34.5394 41.6035 34.2627C41.6035 33.9697 41.7581 33.7988 42.0674 33.75L46.1445 33.2617C46.4863 33.2617 46.6572 33.4489 46.6572 33.8232L46.7549 40.0244C46.7549 40.3011 46.6328 40.4639 46.3887 40.5127L42.7754 41.0986C42.401 41.0661 42.1895 40.9115 42.1406 40.6348L42.043 39.8535ZM51.6621 40.3418C51.4342 40.3418 51.3203 40.1465 51.3203 39.7559V36.0693C51.3203 35.7601 51.4505 35.6055 51.7109 35.6055H54.6406L54.8359 18.54L50.8809 18.125C50.5879 18.0924 50.4414 17.9134 50.4414 17.5879L50.9785 13.5596C51.0436 13.2666 51.2389 13.0957 51.5645 13.0469L59.4014 12.2412C59.5804 12.2412 59.6943 12.29 59.7432 12.3877C59.792 12.4691 59.8245 12.6074 59.8408 12.8027L60.1582 17.2461L60.085 35.6055H62.8682C63.1286 35.6055 63.2588 35.7601 63.2588 36.0693L62.8193 39.2676C62.7868 39.4629 62.7298 39.5931 62.6484 39.6582C62.5833 39.707 62.445 39.7396 62.2334 39.7559L51.6621 40.3418ZM59.2549 6.74805C58.9456 6.99219 58.5306 7.15495 58.0098 7.23633C57.4889 7.31771 56.8623 7.3584 56.1299 7.3584C55.4137 7.3584 54.8604 7.31771 54.4697 7.23633C54.0954 7.15495 53.7943 7.00846 53.5664 6.79688C53.1921 6.40625 53.0049 5.71452 53.0049 4.72168C53.0049 3.72884 53.0537 3.02083 53.1514 2.59766C53.2653 2.1582 53.4688 1.81641 53.7617 1.57227C54.2663 1.14909 55.0882 0.9375 56.2275 0.9375C57.3831 0.9375 58.1562 0.970052 58.5469 1.03516C58.9375 1.08398 59.2467 1.21419 59.4746 1.42578C59.8652 1.76758 60.0605 2.45117 60.0605 3.47656C60.0605 4.50195 60.0036 5.24251 59.8896 5.69824C59.7757 6.15397 59.5641 6.50391 59.2549 6.74805ZM70.0459 14.2676C70.7458 13.5189 71.6247 12.9329 72.6826 12.5098C73.7406 12.0703 75.0345 11.8506 76.5645 11.8506C78.1107 11.8506 79.8278 12.0866 81.7158 12.5586L86.3057 11.7041C86.5986 11.7529 86.7614 11.932 86.7939 12.2412L87.209 20.9326C87.1764 21.3232 86.9974 21.543 86.6719 21.5918L82.5947 22.1289C82.2529 22.1289 82.082 21.9499 82.082 21.5918V17.4658C81.0404 17.2217 79.9255 17.0996 78.7373 17.0996C77.5492 17.0996 76.4993 17.2949 75.5879 17.6855C74.6927 18.0762 73.9928 18.6621 73.4883 19.4434C72.6094 20.8105 72.1699 23.1624 72.1699 26.499C72.1699 31.512 73.1953 34.3685 75.2461 35.0684C75.8971 35.2962 76.6458 35.4102 77.4922 35.4102C78.7129 35.4102 80.1126 35.2555 81.6914 34.9463L81.7891 33.2617C81.8216 32.8711 81.9925 32.6595 82.3018 32.627L86.1592 32.7734C86.387 32.806 86.5173 32.9932 86.5498 33.335L86.9893 40.9766C86.9893 41.3184 86.8265 41.4893 86.501 41.4893H81.8135C81.5693 41.4893 81.431 41.3346 81.3984 41.0254L81.4717 39.6338C75.5798 40.7894 71.5352 39.9674 69.3379 37.168C67.7754 35.1497 66.9941 31.8864 66.9941 27.3779C66.9941 24.3669 67.1243 22.1208 67.3848 20.6396C67.6452 19.1585 67.9788 17.9134 68.3857 16.9043C68.7926 15.8952 69.346 15.0163 70.0459 14.2676ZM91.4814 36.0693C91.514 35.7601 91.6442 35.6055 91.8721 35.6055H95.0215V6.38184L91.5303 5.91797C91.3512 5.88542 91.2292 5.83659 91.1641 5.77148C91.1152 5.70638 91.0908 5.57617 91.0908 5.38086L90.9932 2.06055C90.9932 1.76758 91.1885 1.59668 91.5791 1.54785L99.0742 0.766602C99.3835 0.766602 99.5625 0.961914 99.6113 1.35254L100.075 5.69824L99.7578 24.1553L102.883 24.0332L108.767 16.7822L105.788 17.124C105.528 17.124 105.397 16.9694 105.397 16.6602L105.593 12.7295C105.625 12.404 105.821 12.2412 106.179 12.2412L117.238 12.1436C117.466 12.1436 117.58 12.3389 117.58 12.7295L117.336 16.416C117.303 16.7253 117.173 16.8799 116.945 16.8799L114.479 16.6602L106.838 25.7666L113.869 35.1904L117.897 35.3369C118.207 35.3369 118.378 35.5322 118.41 35.9229L118.654 39.2676C118.654 39.4629 118.605 39.5931 118.508 39.6582C118.426 39.707 118.288 39.7396 118.093 39.7559L110.646 40.0488C110.435 40.0488 110.215 39.8698 109.987 39.5117L102.59 28.208L99.6846 28.4277L99.5625 35.3857L102.053 35.1172C102.313 35.1172 102.443 35.2718 102.443 35.5811L102.248 39.2676C102.232 39.4629 102.183 39.5931 102.102 39.6582C102.02 39.707 101.874 39.7396 101.662 39.7559L92.0674 40.0977C91.8232 40.0977 91.6849 39.8942 91.6523 39.4873L91.4814 36.0693ZM139.577 39.8535C137.494 40.3743 134.849 40.6348 131.643 40.6348C128.371 40.6348 125.995 39.6257 124.514 37.6074C122.967 35.5078 122.194 32.1794 122.194 27.6221C122.194 22.8369 122.854 19.2643 124.172 16.9043C125.669 14.3001 128.062 12.7132 131.35 12.1436C132.489 11.9482 133.758 11.8506 135.158 11.8506C138.169 11.8506 140.358 12.5911 141.726 14.0723C143.093 15.5534 143.776 17.8158 143.776 20.8594C143.776 22.8451 143.426 24.375 142.727 25.4492C142.499 25.791 142.189 26.1816 141.799 26.6211C141.408 27.0443 140.684 27.4268 139.626 27.7686C138.584 28.0941 137.388 28.3464 136.037 28.5254C133.938 28.7858 131.049 28.916 127.37 28.916C127.582 31.6667 128.257 33.5384 129.396 34.5312C130.259 35.3125 131.757 35.7031 133.889 35.7031C135.891 35.7031 137.884 35.5322 139.87 35.1904L139.943 33.9209C139.96 33.7256 140 33.5954 140.065 33.5303C140.147 33.4652 140.285 33.4082 140.48 33.3594L143.996 32.5781C144.354 32.5781 144.558 32.7327 144.606 33.042C144.655 33.3187 144.704 33.8639 144.753 34.6777C144.802 35.4753 144.851 36.167 144.899 36.7529C144.948 37.3389 144.989 37.9004 145.021 38.4375L145.119 39.8047C145.135 40.2116 145.144 40.5534 145.144 40.8301C145.144 41.3184 144.785 41.6032 144.069 41.6846L140.017 42.1729C139.659 42.1729 139.479 41.9938 139.479 41.6357L139.577 39.8535ZM137.307 23.8623C137.73 23.488 137.982 23.0566 138.063 22.5684C138.161 22.0638 138.21 21.4779 138.21 20.8105C138.21 20.127 138.145 19.5247 138.015 19.0039C137.901 18.4831 137.697 18.0355 137.404 17.6611C136.77 16.8799 135.736 16.4893 134.304 16.4893C131.537 16.4893 129.689 17.1891 128.762 18.5889C127.883 19.891 127.395 22.137 127.297 25.3271C132.977 25.2458 136.314 24.7575 137.307 23.8623ZM151.418 40.293C151.158 40.293 151.027 40.0977 151.027 39.707V35.4834C151.027 35.1416 151.206 34.9707 151.564 34.9707H154.421V18.4424L150.93 18.7354C150.669 18.7191 150.507 18.5238 150.441 18.1494L149.904 12.9492C149.953 12.64 150.148 12.4691 150.49 12.4365L157.985 11.9238C158.278 11.9238 158.425 12.111 158.425 12.4854L158.059 16.5137C159.898 14.4792 162.6 13.1283 166.164 12.4609C167.238 12.2493 168.272 12.1436 169.265 12.1436C170.257 12.1436 170.77 12.404 170.803 12.9248L171.096 21.8604C171.096 22.1533 170.974 22.3161 170.729 22.3486L166.14 22.6904C165.944 22.6904 165.79 22.6579 165.676 22.5928C165.562 22.5277 165.505 22.3568 165.505 22.0801V17.7588C163.389 17.9378 161.525 18.361 159.914 19.0283L159.646 35.1416L163.894 34.8242C164.154 34.8242 164.292 34.9626 164.309 35.2393L164.577 39.2676C164.528 39.5931 164.349 39.7721 164.04 39.8047L151.418 40.293ZM194.411 19.1748C190.017 17.6774 186.916 16.9287 185.109 16.9287C183.156 16.9287 181.838 17.4089 181.154 18.3691C180.878 18.7435 180.739 19.2074 180.739 19.7607C180.739 20.3141 180.804 20.7943 180.935 21.2012C181.065 21.6081 181.301 21.9661 181.643 22.2754C182.326 22.9264 183.645 23.4066 185.598 23.7158C187.551 24.0251 189.252 24.3669 190.7 24.7412C192.165 25.0993 193.337 25.5713 194.216 26.1572C195.111 26.7269 195.746 27.4512 196.12 28.3301C196.511 29.209 196.706 30.3402 196.706 31.7236C196.706 33.0908 196.503 34.3034 196.096 35.3613C195.689 36.4193 195.111 37.3145 194.362 38.0469C192.849 39.4954 190.749 40.2197 188.063 40.2197C186.224 40.2197 184.108 39.9919 181.716 39.5361L182.131 41.5625C182.131 41.8229 181.944 41.9694 181.569 42.002L177.37 42.3682C176.752 42.3682 176.41 42.0508 176.345 41.416L175.661 34.165C175.661 33.8721 175.856 33.693 176.247 33.6279L180.056 32.9443C180.332 32.9443 180.503 33.1315 180.568 33.5059L180.861 35.1172C183.221 35.4915 185.166 35.6787 186.696 35.6787C188.226 35.6787 189.366 35.3613 190.114 34.7266C190.863 34.0755 191.237 33.221 191.237 32.1631C191.237 31.1702 190.839 30.4622 190.041 30.0391C189.341 29.6484 187.966 29.2985 185.915 28.9893C183.881 28.6637 182.204 28.3138 180.886 27.9395C179.567 27.5488 178.485 27.0361 177.639 26.4014C176.027 25.1969 175.222 23.1543 175.222 20.2734C175.222 17.7669 175.979 15.765 177.492 14.2676C179.104 12.6888 181.358 11.8994 184.255 11.8994C185.964 11.8994 187.933 12.4691 190.163 13.6084L189.699 11.6797C189.699 11.2891 189.87 11.0775 190.212 11.0449L195.046 10.6543C195.306 10.6543 195.437 10.8415 195.437 11.2158L194.899 18.6621C194.883 19.0039 194.72 19.1748 194.411 19.1748Z" fill="white" fill-opacity="0.976296"/>
<path d="M19.4355 39.2188L20.068 41.1161L20.0769 41.1131L19.4355 39.2188ZM6.83789 39.1211L7.19566 37.1534L4.61705 36.6845L4.8455 39.2954L6.83789 39.1211ZM7.00879 41.0742H9.00879V40.9869L9.00118 40.8999L7.00879 41.0742ZM6.44727 41.5137V39.5137H6.4182L6.38915 39.5145L6.44727 41.5137ZM2.24805 41.6357L2.14293 43.633L2.22451 43.6373L2.30616 43.6349L2.24805 41.6357ZM1.22266 40.6836L-0.767771 40.879L-0.766813 40.8888L-0.765758 40.8986L1.22266 40.6836ZM0.294922 31.2354H-1.70508V31.3333L-1.69551 31.4308L0.294922 31.2354ZM0.880859 30.6982L1.04695 32.6913L1.05536 32.6906L1.06376 32.6899L0.880859 30.6982ZM5.66602 30.2588V28.2588H5.57437L5.48311 28.2672L5.66602 30.2588ZM6.17871 30.8203L8.17235 30.6603L8.17119 30.6471L6.17871 30.8203ZM6.49609 34.7754L4.5025 34.9354L4.63547 36.5924L6.28888 36.7646L6.49609 34.7754ZM18.3857 33.9697L19.674 35.4995L19.6818 35.493L19.6895 35.4864L18.3857 33.9697ZM18.1416 26.8652L16.84 28.3837L16.8495 28.3918L16.859 28.3998L18.1416 26.8652ZM15.9199 25.4248L16.8396 23.6488L16.8166 23.6369L16.7933 23.6256L15.9199 25.4248ZM9.23047 22.1777L10.1038 20.3785L10.0968 20.3751L10.0899 20.3718L9.23047 22.1777ZM4.37207 19.4922L3.14419 21.0709L3.15338 21.078L3.16265 21.0851L4.37207 19.4922ZM2.3457 17.4902L0.719566 18.6546L0.726482 18.6642L2.3457 17.4902ZM1.75977 8.28613L3.58936 9.09401L3.59316 9.0853L1.75977 8.28613ZM4.10352 5.01465L5.44412 6.49889L5.45394 6.4899L4.10352 5.01465ZM19.6797 3.20801L19.1564 5.13834L19.712 5.28894L20.2626 5.12117L19.6797 3.20801ZM24.4404 2.91504L26.4381 3.01131L26.444 2.88921L26.435 2.7673L24.4404 2.91504ZM23.9521 13.0469L25.9446 13.2201L25.948 13.1817L25.9498 13.1431L23.9521 13.0469ZM23.5615 13.6084L23.4901 15.6071L23.5258 15.6084H23.5615V13.6084ZM19.46 13.4619L19.3175 15.4568L19.353 15.4594L19.3886 15.4606L19.46 13.4619ZM18.9473 12.8271L16.9486 12.8998L16.9501 12.9402L16.9532 12.9805L18.9473 12.8271ZM18.752 7.45605L20.7506 7.38338L20.6952 5.85867L19.21 5.50922L18.752 7.45605ZM7.30176 9.48242L8.97865 10.5724L8.97968 10.5708L7.30176 9.48242ZM9.13281 15.6592L8.03923 17.3337L8.05133 17.3416L8.06353 17.3493L9.13281 15.6592ZM12.0625 17.1973L12.8943 15.3784L12.8843 15.3739L12.0625 17.1973ZM16.0664 19.0283L16.907 17.2135L16.8982 17.2095L16.0664 19.0283ZM23.5859 23.6914L22.1116 25.0429L22.1163 25.048L23.5859 23.6914ZM18.8031 37.3214C17.7087 37.6862 16.2153 37.9023 14.2598 37.9023V41.9023C16.4709 41.9023 18.428 41.6628 20.068 41.1161L18.8031 37.3214ZM14.2598 37.9023C12.3331 37.9023 9.98484 37.6605 7.19566 37.1534L6.48012 41.0888C9.4201 41.6234 12.0197 41.9023 14.2598 41.9023V37.9023ZM4.8455 39.2954L5.0164 41.2486L9.00118 40.8999L8.83028 38.9468L4.8455 39.2954ZM5.00879 41.0742C5.00879 40.7639 5.13274 40.2225 5.63579 39.8288C6.04558 39.5081 6.4283 39.5137 6.44727 39.5137V43.5137C6.84058 43.5137 7.50406 43.446 8.10102 42.9788C8.79125 42.4386 9.00879 41.6776 9.00879 41.0742H5.00879ZM6.38915 39.5145L2.18993 39.6366L2.30616 43.6349L6.50538 43.5128L6.38915 39.5145ZM2.35316 39.6385C2.35722 39.6387 2.61768 39.656 2.88873 39.9077C3.16527 40.1645 3.20764 40.4369 3.21107 40.4686L-0.765758 40.8986C-0.697227 41.5325 -0.451407 42.2647 0.16693 42.8389C0.779779 43.408 1.52039 43.6002 2.14293 43.633L2.35316 39.6385ZM3.21308 40.4882L2.28535 31.0399L-1.69551 31.4308L-0.767771 40.879L3.21308 40.4882ZM2.29492 31.2354C2.29492 31.4952 2.2003 31.9578 1.79286 32.3312C1.44 32.6547 1.0902 32.6877 1.04695 32.6913L0.714768 28.7052C0.280895 28.7413 -0.361876 28.8801 -0.910043 29.3826C-1.5128 29.9351 -1.70508 30.65 -1.70508 31.2354H2.29492ZM1.06376 32.6899L5.84892 32.2504L5.48311 28.2672L0.697956 28.7066L1.06376 32.6899ZM5.66602 32.2588C5.39229 32.2588 4.92423 32.1585 4.54915 31.7477C4.2257 31.3935 4.19044 31.042 4.18623 30.9936L8.17119 30.6471C8.13443 30.2243 7.99744 29.5921 7.50309 29.0506C6.95711 28.4527 6.24898 28.2588 5.66602 28.2588V32.2588ZM4.18512 30.9803L4.5025 34.9354L8.48969 34.6154L8.1723 30.6603L4.18512 30.9803ZM6.28888 36.7646C8.70061 37.0158 11.1054 37.1416 13.5029 37.1416V33.1416C11.2455 33.1416 8.97907 33.0232 6.70331 32.7862L6.28888 36.7646ZM13.5029 37.1416C15.9269 37.1416 18.1767 36.7604 19.674 35.4995L17.0975 32.4399C16.7393 32.7415 15.7339 33.1416 13.5029 33.1416V37.1416ZM19.6895 35.4864C21.1848 34.2009 21.7773 32.3698 21.7773 30.3809H17.7773C17.7773 31.582 17.4421 32.1435 17.082 32.4531L19.6895 35.4864ZM21.7773 30.3809C21.7773 28.3614 20.9734 26.6255 19.4242 25.3307L16.859 28.3998C17.4908 28.9278 17.7773 29.5358 17.7773 30.3809H21.7773ZM19.4432 25.3467C18.7227 24.7292 17.8416 24.1677 16.8396 23.6488L15.0002 27.2008C15.8212 27.6259 16.4212 28.0247 16.84 28.3837L19.4432 25.3467ZM16.7933 23.6256L10.1038 20.3785L8.35712 23.977L15.0466 27.224L16.7933 23.6256ZM10.0899 20.3718C7.73176 19.2497 6.28019 18.4298 5.58149 17.8993L3.16265 21.0851C4.22176 21.8892 6.00913 22.8597 8.37109 23.9837L10.0899 20.3718ZM5.59995 17.9135C4.81725 17.3047 4.2929 16.7687 3.96492 16.3163L0.726482 18.6642C1.34252 19.5139 2.16908 20.3125 3.14419 21.0709L5.59995 17.9135ZM3.97181 16.3259C3.29395 15.3792 2.92969 14.2493 2.92969 12.8516H-1.07031C-1.07031 15.002 -0.490563 16.9646 0.719594 18.6546L3.97181 16.3259ZM2.92969 12.8516C2.92969 11.2579 3.17716 10.0275 3.58934 9.094L-0.0698118 7.47827C-0.7644 9.05131 -1.07031 10.8645 -1.07031 12.8516H2.92969ZM3.59316 9.0853C4.03502 8.07161 4.65008 7.21603 5.44409 6.49885L2.76294 3.53044C1.53873 4.63619 0.591279 5.96159 -0.0736263 7.48696L3.59316 9.0853ZM5.45394 6.4899C7.15095 4.93648 9.33245 4.10938 12.1602 4.10938V0.109375C8.47744 0.109375 5.28785 1.21912 2.75309 3.5394L5.45394 6.4899ZM12.1602 4.10938C14.262 4.10938 16.5906 4.44278 19.1564 5.13834L20.203 1.27768C17.3652 0.508391 14.6807 0.109375 12.1602 0.109375V4.10938ZM20.2626 5.12117C21.2874 4.80893 22.0935 4.58299 22.6924 4.43701C23.3565 4.27513 23.5957 4.25586 23.5859 4.25586V0.255859C23.0553 0.255859 22.3831 0.395284 21.7451 0.550788C21.042 0.722181 20.1553 0.972319 19.0968 1.29484L20.2626 5.12117ZM23.5859 4.25586C23.5855 4.25586 23.5713 4.25587 23.5453 4.25286C23.5194 4.24986 23.4781 4.24341 23.425 4.22921C23.3178 4.20057 23.1538 4.13771 22.9808 4.00422C22.5743 3.69064 22.4614 3.27177 22.4459 3.06278L26.435 2.7673C26.3869 2.11885 26.1153 1.3704 25.424 0.83709C24.7964 0.352907 24.0883 0.255859 23.5859 0.255859V4.25586ZM22.4427 2.81877L21.9545 12.9506L25.9498 13.1431L26.4381 3.01131L22.4427 2.81877ZM21.9597 12.8736C21.9598 12.872 21.964 12.8203 21.9885 12.7357C22.0125 12.6529 22.0672 12.5 22.1883 12.3259C22.3159 12.1424 22.5116 11.9451 22.7876 11.8009C23.0636 11.6566 23.3376 11.6084 23.5615 11.6084V15.6084C24.3307 15.6084 25.0332 15.2408 25.4719 14.6101C25.8266 14.1003 25.9156 13.5545 25.9446 13.2201L21.9597 12.8736ZM23.6329 11.6097L19.5313 11.4632L19.3886 15.4606L23.4901 15.6071L23.6329 11.6097ZM19.6025 11.467C19.6116 11.4677 19.6456 11.4704 19.6981 11.4809C19.7491 11.4911 19.8372 11.5125 19.9468 11.5576C20.1584 11.6447 20.5737 11.8764 20.8338 12.3966L17.2561 14.1854C17.565 14.8033 18.0739 15.1123 18.4238 15.2563C18.7653 15.397 19.0906 15.4406 19.3175 15.4568L19.6025 11.467ZM20.8338 12.3966C20.8751 12.4793 20.9002 12.548 20.9148 12.5931C20.9296 12.639 20.9374 12.6727 20.941 12.6898C20.9476 12.721 20.9449 12.72 20.9414 12.6738L16.9532 12.9805C16.9741 13.2531 17.0276 13.7284 17.2561 14.1854L20.8338 12.3966ZM20.9459 12.7545L20.7506 7.38338L16.7533 7.52873L16.9486 12.8998L20.9459 12.7545ZM19.21 5.50922C17.1952 5.03514 15.4178 4.77246 13.918 4.77246V8.77246C14.9898 8.77246 16.435 8.96551 18.2939 9.40289L19.21 5.50922ZM13.918 4.77246C10.3645 4.77246 7.326 5.76986 5.62384 8.39404L8.97968 10.5708C9.62126 9.5817 10.9936 8.77246 13.918 8.77246V4.77246ZM5.62487 8.39245C4.96005 9.41524 4.66699 10.5803 4.66699 11.8018H8.66699C8.66699 11.2329 8.79711 10.8517 8.97865 10.5724L5.62487 8.39245ZM4.66699 11.8018C4.66699 13.0085 4.96189 14.1751 5.6804 15.17L8.92312 12.828C8.79527 12.651 8.66699 12.3528 8.66699 11.8018H4.66699ZM5.6804 15.17C6.28476 16.0068 7.0981 16.7191 8.03923 17.3337L10.2264 13.9846C9.57247 13.5576 9.16511 13.1631 8.92312 12.828L5.6804 15.17ZM8.06353 17.3493C8.96192 17.9177 10.0266 18.4734 11.2407 19.0206L12.8843 15.3739C11.7872 14.8795 10.8988 14.4098 10.2021 13.969L8.06353 17.3493ZM11.2307 19.0161L15.2346 20.8471L16.8982 17.2095L12.8943 15.3784L11.2307 19.0161ZM15.2258 20.8431C18.9695 22.5772 21.1502 23.994 22.1116 25.0429L25.0602 22.34C23.5152 20.6544 20.6828 18.9625 16.907 17.2136L15.2258 20.8431ZM22.1163 25.048C23.0441 26.053 23.6367 27.5837 23.6367 29.917H27.6367C27.6367 26.9118 26.8622 24.292 25.0555 22.3348L22.1163 25.048ZM23.6367 29.917C23.6367 32.0358 23.1816 33.5952 22.4223 34.7341C21.674 35.8566 20.5175 36.7409 18.7941 37.3244L20.0769 41.1131C22.4877 40.2969 24.4318 38.931 25.7505 36.9529C27.0583 34.9912 27.6367 32.5996 27.6367 29.917H23.6367ZM42.043 39.8535L44.0275 39.6054L43.7944 37.7402L41.9182 37.8574L42.043 39.8535ZM34.8652 39.4629L34.2426 41.3635L34.2522 41.3666L34.8652 39.4629ZM32.5215 37.9736L31.0376 39.3145L31.0384 39.3155L32.5215 37.9736ZM30.7637 25.9131L28.765 25.8397L28.7647 25.8486L28.7644 25.8576L30.7637 25.9131ZM30.9102 21.2012L28.9114 21.1306L28.911 21.1421L28.9107 21.1536L30.9102 21.2012ZM31.0566 17.0996L33.0553 17.1719L33.1248 15.2495L31.2066 15.1052L31.0566 17.0996ZM27.8096 16.8555L27.9595 14.8611L27.9345 14.8592L27.9094 14.858L27.8096 16.8555ZM27.3213 16.1963H29.3213V16.1876L29.3212 16.1789L27.3213 16.1963ZM27.2969 13.3887H25.2969V13.3974L25.297 13.4061L27.2969 13.3887ZM27.834 12.8516V14.8516H27.8554L27.8768 14.8511L27.834 12.8516ZM31.252 12.7783L31.2948 14.7779L33.1781 14.7375L33.2505 12.8552L31.252 12.7783ZM31.3496 10.3613L29.3524 10.2555L29.3519 10.2659L29.3514 10.2763L31.3496 10.3613ZM31.5449 6.6748L29.5481 6.56178L29.5477 6.56899L31.5449 6.6748ZM31.7402 5.20996L33.3677 6.37244L33.4035 6.32225L33.4362 6.26996L31.7402 5.20996ZM32.1797 4.96582L31.9448 2.97967L31.9101 2.98377L31.8756 2.98908L32.1797 4.96582ZM36.7207 4.42871V2.42871H36.6028L36.4858 2.44256L36.7207 4.42871ZM36.9648 8.50586L34.9743 8.31209L34.9734 8.32056L34.9727 8.32904L36.9648 8.50586ZM36.5986 12.6318L34.6065 12.455L34.4077 14.6941L36.6547 14.631L36.5986 12.6318ZM46.1689 12.3633V10.3633H46.1409L46.1128 10.3641L46.1689 12.3633ZM46.1689 17.4414L46.0851 19.4396L46.1724 19.4433L46.2598 19.4393L46.1689 17.4414ZM36.2812 17.0264L36.3651 15.0281L34.4271 14.9468L34.2865 16.8814L36.2812 17.0264ZM36.0371 32.4805L34.0557 32.7524L34.0583 32.7714L34.0613 32.7904L36.0371 32.4805ZM36.7207 34.4092L38.3528 33.2531L38.3482 33.2467L36.7207 34.4092ZM41.6768 35.5322L41.8302 37.5263L43.8418 37.3716L43.6695 35.3614L41.6768 35.5322ZM42.0674 33.75L41.8296 31.7642L41.7924 31.7686L41.7555 31.7745L42.0674 33.75ZM46.1445 33.2617V31.2617H46.0252L45.9067 31.2759L46.1445 33.2617ZM46.6572 33.8232H44.6572V33.839L44.6575 33.8547L46.6572 33.8232ZM46.7549 40.0244H48.7549V40.0087L48.7546 39.9929L46.7549 40.0244ZM46.3887 40.5127L46.7088 42.4869L46.745 42.481L46.7809 42.4739L46.3887 40.5127ZM42.7754 41.0986L42.6021 43.0911L42.85 43.1127L43.0955 43.0728L42.7754 41.0986ZM42.1406 40.6348L40.1561 40.8828L40.1623 40.9328L40.1711 40.9823L42.1406 40.6348ZM41.9182 37.8574C41.201 37.9022 40.0958 37.9268 38.5762 37.9268V41.9268C40.1165 41.9268 41.3224 41.9025 42.1677 41.8496L41.9182 37.8574ZM38.5762 37.9268C37.1773 37.9268 36.1678 37.7812 35.4783 37.5592L34.2522 41.3666C35.4832 41.763 36.9477 41.9268 38.5762 41.9268V37.9268ZM35.4879 37.5623C34.8479 37.3526 34.3717 37.0376 34.0046 36.6318L31.0384 39.3155C31.9083 40.2769 32.9945 40.9547 34.2426 41.3635L35.4879 37.5623ZM34.0054 36.6327C33.2741 35.8234 32.6904 34.2538 32.6904 31.4551H28.6904C28.6904 34.6459 29.3275 37.422 31.0376 39.3145L34.0054 36.6327ZM32.6904 31.4551C32.6904 29.5349 32.7146 27.7062 32.7629 25.9686L28.7644 25.8576C28.7151 27.6356 28.6904 29.5015 28.6904 31.4551H32.6904ZM32.7623 25.9864C32.8277 24.2061 32.8768 22.6266 32.9096 21.2488L28.9107 21.1536C28.8784 22.5101 28.8299 24.0719 28.765 25.8397L32.7623 25.9864ZM32.9089 21.2717C32.9577 19.8888 33.0065 18.5222 33.0553 17.1719L29.0579 17.0274C29.0091 18.3789 28.9602 19.7466 28.9114 21.1306L32.9089 21.2717ZM31.2066 15.1052L27.9595 14.8611L27.6596 18.8498L30.9067 19.094L31.2066 15.1052ZM27.9094 14.858C28.2174 14.8734 28.7061 15.0231 29.0505 15.488C29.1941 15.6819 29.2603 15.8648 29.2906 15.9847C29.3203 16.1018 29.3213 16.1797 29.3213 16.1963H25.3213C25.3213 16.6165 25.3941 17.2721 25.8362 17.8689C26.3434 18.5536 27.0763 18.8213 27.7097 18.853L27.9094 14.858ZM29.3212 16.1789L29.2968 13.3713L25.297 13.4061L25.3214 16.2137L29.3212 16.1789ZM29.2969 13.3887C29.2969 13.5179 29.2632 13.9822 28.8454 14.4001C28.4275 14.8179 27.9632 14.8516 27.834 14.8516V10.8516C27.3467 10.8516 26.6138 10.9747 26.0169 11.5716C25.4201 12.1685 25.2969 12.9013 25.2969 13.3887H29.2969ZM27.8768 14.8511L31.2948 14.7779L31.2091 10.7788L27.7911 10.852L27.8768 14.8511ZM33.2505 12.8552C33.2829 12.0113 33.3154 11.2083 33.3478 10.4464L29.3514 10.2763C29.3187 11.0443 29.2861 11.8527 29.2534 12.7015L33.2505 12.8552ZM33.3468 10.4671L33.5421 6.78062L29.5477 6.56899L29.3524 10.2555L33.3468 10.4671ZM33.5417 6.78783C33.5651 6.37558 33.5901 6.09609 33.6128 5.92595C33.6245 5.83835 33.6307 5.81708 33.6256 5.8383C33.6229 5.84949 33.6109 5.89808 33.5846 5.96845C33.571 6.00503 33.5497 6.05794 33.5185 6.12105C33.4883 6.18235 33.4398 6.27146 33.3677 6.37244L30.1128 4.04748C29.8509 4.41409 29.762 4.79782 29.7389 4.8929C29.6971 5.06468 29.6688 5.24075 29.6479 5.39729C29.6055 5.71543 29.5736 6.1114 29.5481 6.56178L33.5417 6.78783ZM33.4362 6.26996C33.1018 6.80511 32.6113 6.92294 32.4838 6.94256L31.8756 2.98908C31.3249 3.0738 30.5415 3.3544 30.0442 4.14996L33.4362 6.26996ZM32.4146 6.95198L36.9556 6.41487L36.4858 2.44256L31.9448 2.97967L32.4146 6.95198ZM36.7207 6.42871C36.559 6.42871 36.0763 6.38164 35.6585 5.94394C35.2573 5.52363 35.2334 5.07243 35.2334 4.96582H39.2334C39.2334 4.50114 39.124 3.78139 38.5519 3.18204C37.9632 2.5653 37.2242 2.42871 36.7207 2.42871V6.42871ZM35.2334 4.96582C35.2334 5.36968 35.156 6.44479 34.9743 8.31209L38.9554 8.69963C39.1317 6.88854 39.2334 5.60363 39.2334 4.96582H35.2334ZM34.9727 8.32904L34.6065 12.455L38.5908 12.8087L38.957 8.68268L34.9727 8.32904ZM36.6547 14.631L46.225 14.3625L46.1128 10.3641L36.5425 10.6326L36.6547 14.631ZM46.1689 14.3633C45.9928 14.3633 45.5063 14.3072 45.0975 13.8612C44.7189 13.4482 44.7061 13.0212 44.7061 12.9492H48.7061C48.7061 12.4867 48.6037 11.7667 48.0461 11.1583C47.4582 10.517 46.7032 10.3633 46.1689 10.3633V14.3633ZM44.7061 12.9492V16.9287H48.7061V12.9492H44.7061ZM44.7061 16.9287C44.7061 16.7251 44.7713 16.2548 45.1908 15.8543C45.5787 15.4841 45.9871 15.4476 46.0781 15.4435L46.2598 19.4393C46.7089 19.4189 47.3858 19.2889 47.9527 18.7477C48.5513 18.1763 48.7061 17.4579 48.7061 16.9287H44.7061ZM46.2528 15.4432L36.3651 15.0281L36.1974 19.0246L46.0851 19.4396L46.2528 15.4432ZM34.2865 16.8814C34.0074 20.7229 33.8662 24.0936 33.8662 26.9873H37.8662C37.8662 24.2169 38.0017 20.947 38.276 17.1713L34.2865 16.8814ZM33.8662 26.9873C33.8662 29.7842 33.9196 31.7607 34.0557 32.7524L38.0185 32.2085C37.9268 31.5401 37.8662 29.8544 37.8662 26.9873H33.8662ZM34.0613 32.7904C34.2176 33.7871 34.5191 34.7678 35.0932 35.5717L38.3482 33.2467C38.2713 33.1391 38.117 32.834 38.0129 32.1705L34.0613 32.7904ZM35.0887 35.5652C36.2477 37.2015 38.3484 37.5811 40.2607 37.5811V33.5811C39.4831 33.5811 38.9672 33.4947 38.6493 33.3894C38.3436 33.2882 38.3181 33.2042 38.3528 33.2531L35.0887 35.5652ZM40.2607 37.5811C40.8218 37.5811 41.346 37.5636 41.8302 37.5263L41.5234 33.5381C41.1611 33.566 40.7414 33.5811 40.2607 33.5811V37.5811ZM43.6695 35.3614C43.6215 34.8021 43.6035 34.4496 43.6035 34.2627H39.6035C39.6035 34.6292 39.6343 35.123 39.6841 35.703L43.6695 35.3614ZM43.6035 34.2627C43.6035 34.4729 43.5408 34.8828 43.2026 35.2566C42.8794 35.6138 42.515 35.7041 42.3793 35.7255L41.7555 31.7745C41.3106 31.8447 40.7142 32.0449 40.2364 32.573C39.7436 33.1177 39.6035 33.7595 39.6035 34.2627H43.6035ZM42.3052 35.7358L46.3824 35.2475L45.9067 31.2759L41.8296 31.7642L42.3052 35.7358ZM46.1445 35.2617C45.9579 35.2617 45.4644 35.2022 45.0521 34.7506C44.6712 34.3335 44.6572 33.9016 44.6572 33.8232H48.6572C48.6572 33.3705 48.5578 32.6579 48.006 32.0536C47.4228 31.4148 46.6729 31.2617 46.1445 31.2617V35.2617ZM44.6575 33.8547L44.7551 40.0559L48.7546 39.9929L48.657 33.7918L44.6575 33.8547ZM44.7549 40.0244C44.7549 39.8836 44.7856 39.5243 45.0633 39.154C45.36 38.7584 45.7489 38.601 45.9964 38.5515L46.7809 42.4739C47.2725 42.3755 47.8446 42.1124 48.2633 41.554C48.6631 41.0209 48.7549 40.4419 48.7549 40.0244H44.7549ZM46.0685 38.5385L42.4552 39.1244L43.0955 43.0728L46.7088 42.4869L46.0685 38.5385ZM42.9486 39.1062C42.976 39.1085 43.2258 39.1314 43.516 39.3435C43.859 39.5941 44.052 39.9574 44.1102 40.2872L40.1711 40.9823C40.2781 41.5888 40.6013 42.1677 41.1559 42.573C41.6577 42.9397 42.2004 43.0562 42.6021 43.0911L42.9486 39.1062ZM44.1252 40.3867L44.0275 39.6054L40.0584 40.1016L40.1561 40.8828L44.1252 40.3867ZM51.6621 40.3418V42.3418H51.7175L51.7728 42.3387L51.6621 40.3418ZM54.6406 35.6055V37.6055H56.6179L56.6405 35.6284L54.6406 35.6055ZM54.8359 18.54L56.8358 18.5629L56.8567 16.7411L55.0447 16.551L54.8359 18.54ZM50.8809 18.125L50.66 20.1128L50.6721 20.1141L50.8809 18.125ZM50.4414 17.5879L48.459 17.3236L48.4414 17.4551V17.5879H50.4414ZM50.9785 13.5596L49.0261 13.1257L49.0074 13.2098L48.9961 13.2952L50.9785 13.5596ZM51.5645 13.0469L51.3599 11.0574L51.3137 11.0621L51.2678 11.069L51.5645 13.0469ZM59.4014 12.2412V10.2412H59.2988L59.1968 10.2517L59.4014 12.2412ZM59.7432 12.3877L57.9543 13.2821L57.9887 13.3508L58.0282 13.4167L59.7432 12.3877ZM59.8408 12.8027L61.8357 12.6602L61.8349 12.6484L61.8339 12.6366L59.8408 12.8027ZM60.1582 17.2461L62.1582 17.2541L62.1585 17.1787L62.1531 17.1036L60.1582 17.2461ZM60.085 35.6055L58.085 35.5975L58.077 37.6055H60.085V35.6055ZM63.2588 36.0693L65.2402 36.3416L65.2588 36.2061V36.0693H63.2588ZM62.8193 39.2676L64.7921 39.5964L64.7968 39.5682L64.8007 39.5398L62.8193 39.2676ZM62.6484 39.6582L63.8484 41.2582L63.8734 41.2395L63.8978 41.2199L62.6484 39.6582ZM62.2334 39.7559L62.3441 41.7528L62.3655 41.7516L62.3868 41.75L62.2334 39.7559ZM54.4697 7.23633L54.0449 9.19068L54.0533 9.19252L54.0618 9.19429L54.4697 7.23633ZM53.5664 6.79688L52.1224 8.18069L52.1628 8.22278L52.2055 8.26246L53.5664 6.79688ZM53.1514 2.59766L51.2154 2.09573L51.2086 2.12175L51.2026 2.14794L53.1514 2.59766ZM53.7617 1.57227L55.0421 3.10872L55.0469 3.10465L53.7617 1.57227ZM58.5469 1.03516L58.2181 3.00794L58.2583 3.01465L58.2988 3.01971L58.5469 1.03516ZM59.4746 1.42578L58.1137 2.89137L58.1354 2.91148L58.1576 2.93093L59.4746 1.42578ZM51.6621 38.3418C51.8977 38.3418 52.2006 38.3948 52.5049 38.5687C52.8098 38.743 53.0116 38.9789 53.1333 39.1876C53.3416 39.5446 53.3203 39.8222 53.3203 39.7559H49.3203C49.3203 40.0801 49.356 40.6508 49.6782 41.2031C50.097 41.921 50.8437 42.3418 51.6621 42.3418V38.3418ZM53.3203 39.7559V36.0693H49.3203V39.7559H53.3203ZM53.3203 36.0693C53.3203 36.1472 53.3111 36.5782 52.9478 37.0097C52.529 37.507 51.9878 37.6055 51.7109 37.6055V33.6055C51.1737 33.6055 50.4371 33.7812 49.8881 34.4332C49.3946 35.0192 49.3203 35.6823 49.3203 36.0693H53.3203ZM51.7109 37.6055H54.6406V33.6055H51.7109V37.6055ZM56.6405 35.6284L56.8358 18.5629L52.8361 18.5172L52.6408 35.5826L56.6405 35.6284ZM55.0447 16.551L51.0896 16.1359L50.6721 20.1141L54.6272 20.5291L55.0447 16.551ZM51.1017 16.1372C51.3258 16.1621 51.7572 16.2818 52.0992 16.6998C52.4172 17.0886 52.4414 17.474 52.4414 17.5879H48.4414C48.4414 18.0273 48.5388 18.665 49.0034 19.2328C49.4918 19.8298 50.143 20.0553 50.66 20.1128L51.1017 16.1372ZM52.4239 17.8522L52.961 13.8239L48.9961 13.2952L48.459 17.3236L52.4239 17.8522ZM52.9309 13.9934C52.8861 14.1951 52.762 14.4796 52.4908 14.7168C52.2325 14.9429 51.9759 15.0075 51.8611 15.0247L51.2678 11.069C50.8275 11.135 50.3105 11.3095 49.8568 11.7065C49.3904 12.1146 49.1361 12.631 49.0261 13.1257L52.9309 13.9934ZM51.769 15.0364L59.6059 14.2307L59.1968 10.2517L51.3599 11.0574L51.769 15.0364ZM59.4014 14.2412C59.3308 14.2412 59.1101 14.2348 58.8333 14.1161C58.5179 13.981 58.17 13.7135 57.9543 13.2821L61.532 11.4933C60.9618 10.3527 59.8176 10.2412 59.4014 10.2412V14.2412ZM58.0282 13.4167C57.9639 13.3095 57.9245 13.2169 57.9012 13.154C57.8775 13.09 57.8643 13.04 57.8574 13.0106C57.8444 12.9554 57.845 12.9355 57.8477 12.9688L61.8339 12.6366C61.8137 12.3943 61.7584 11.859 61.4581 11.3587L58.0282 13.4167ZM57.8459 12.9452L58.1633 17.3886L62.1531 17.1036L61.8357 12.6602L57.8459 12.9452ZM58.1582 17.2381L58.085 35.5975L62.0849 35.6134L62.1582 17.2541L58.1582 17.2381ZM60.085 37.6055H62.8682V33.6055H60.085V37.6055ZM62.8682 37.6055C62.5913 37.6055 62.0501 37.507 61.6313 37.0097C61.268 36.5782 61.2588 36.1472 61.2588 36.0693H65.2588C65.2588 35.6823 65.1845 35.0192 64.691 34.4332C64.142 33.7812 63.4054 33.6055 62.8682 33.6055V37.6055ZM61.2774 35.7971L60.838 38.9953L64.8007 39.5398L65.2402 36.3416L61.2774 35.7971ZM60.8465 38.9388C60.8476 38.9322 60.862 38.8423 60.9199 38.7101C60.9763 38.5811 61.1116 38.3264 61.399 38.0965L63.8978 41.2199C64.5862 40.6692 64.7425 39.8943 64.7921 39.5964L60.8465 38.9388ZM61.4484 38.0582C61.6115 37.9359 61.7578 37.8689 61.8431 37.8348C61.9327 37.799 62.0022 37.7808 62.0378 37.7724C62.1047 37.7567 62.128 37.7581 62.08 37.7618L62.3868 41.75C62.5504 41.7374 62.7487 41.7144 62.9539 41.6661C63.1207 41.6268 63.4882 41.5284 63.8484 41.2582L61.4484 38.0582ZM62.1227 37.7589L51.5514 38.3449L51.7728 42.3387L62.3441 41.7528L62.1227 37.7589ZM58.0156 5.17828C58.0525 5.14913 57.9926 5.21474 57.701 5.2603L58.3185 9.21235C59.0686 9.09515 59.8388 8.83524 60.4942 8.31781L58.0156 5.17828ZM57.701 5.2603C57.313 5.32093 56.7955 5.3584 56.1299 5.3584V9.3584C56.9291 9.3584 57.6648 9.31449 58.3185 9.21235L57.701 5.2603ZM56.1299 5.3584C55.4611 5.3584 55.0681 5.31805 54.8776 5.27837L54.0618 9.19429C54.6526 9.31736 55.3664 9.3584 56.1299 9.3584V5.3584ZM54.8946 5.28198C54.8412 5.27038 54.8265 5.26135 54.8381 5.26696C54.844 5.26986 54.856 5.27621 54.8722 5.28714C54.8884 5.29815 54.9073 5.31275 54.9273 5.33129L52.2055 8.26246C52.7506 8.76861 53.4012 9.05075 54.0449 9.19068L54.8946 5.28198ZM55.0104 5.41306C55.1181 5.52544 55.1093 5.58644 55.0758 5.46272C55.0422 5.33841 55.0049 5.10409 55.0049 4.72168H51.0049C51.0049 5.84288 51.1919 7.20965 52.1224 8.18069L55.0104 5.41306ZM55.0049 4.72168C55.0049 3.73732 55.0581 3.22939 55.1001 3.04738L51.2026 2.14794C51.0493 2.81227 51.0049 3.72036 51.0049 4.72168H55.0049ZM55.0874 3.09958C55.1034 3.0376 55.1155 3.022 55.108 3.03469C55.1043 3.04097 55.0968 3.05232 55.0847 3.06652C55.0726 3.08081 55.0582 3.09528 55.0421 3.10871L52.4813 0.0358231C51.8095 0.595702 51.4138 1.33045 51.2154 2.09573L55.0874 3.09958ZM55.0469 3.10465C55.0143 3.13199 55.0528 3.08514 55.2552 3.03305C55.4586 2.98068 55.7727 2.9375 56.2275 2.9375V-1.0625C54.9296 -1.0625 53.5237 -0.838393 52.4765 0.0398825L55.0469 3.10465ZM56.2275 2.9375C57.4078 2.9375 58.0168 2.9744 58.2181 3.00794L58.8757 -0.937632C58.2957 -1.0343 57.3585 -1.0625 56.2275 -1.0625V2.9375ZM58.2988 3.01971C58.343 3.02524 58.336 3.02967 58.2957 3.0127C58.2519 2.99426 58.1842 2.95684 58.1137 2.89137L60.8355 -0.0398057C60.2272 -0.604695 59.4904 -0.862469 58.7949 -0.9494L58.2988 3.01971ZM58.1576 2.93093C57.9744 2.77065 57.9613 2.64027 57.991 2.74427C58.0206 2.84768 58.0605 3.07525 58.0605 3.47656H62.0605C62.0605 2.3756 61.8877 0.879692 60.7916 -0.0793721L58.1576 2.93093ZM58.0605 3.47656C58.0605 4.48402 57.9994 5.01308 57.9494 5.21317L61.8299 6.18331C62.0078 5.47194 62.0605 4.51988 62.0605 3.47656H58.0605ZM57.9494 5.21317C57.9338 5.27559 57.9225 5.28671 57.934 5.26765C57.9398 5.25821 57.9497 5.24369 57.9646 5.22664C57.9797 5.20948 57.997 5.19297 58.0156 5.17828L60.4942 8.31781C61.2138 7.74965 61.63 6.98285 61.8299 6.18331L57.9494 5.21317ZM70.0459 14.2676L71.507 15.6333L70.0459 14.2676ZM72.6826 12.5098L73.4254 14.3667L73.4376 14.3618L73.4498 14.3568L72.6826 12.5098ZM81.7158 12.5586L81.2307 14.4989L81.6535 14.6046L82.0819 14.5248L81.7158 12.5586ZM86.3057 11.7041L86.6345 9.73131L86.2865 9.67331L85.9396 9.73789L86.3057 11.7041ZM86.7939 12.2412L88.7917 12.1458L88.7889 12.0887L88.783 12.0318L86.7939 12.2412ZM87.209 20.9326L89.2021 21.0987L89.213 20.9681L89.2067 20.8372L87.209 20.9326ZM86.6719 21.5918L86.9331 23.5747L86.9508 23.5723L86.9686 23.5697L86.6719 21.5918ZM82.5947 22.1289V24.1289H82.7259L82.8559 24.1118L82.5947 22.1289ZM82.082 17.4658H84.082V15.8804L82.5384 15.5186L82.082 17.4658ZM75.5879 17.6855L74.8 15.8472L74.788 15.8525L75.5879 17.6855ZM73.4883 19.4434L71.8082 18.3583L71.8059 18.3618L73.4883 19.4434ZM75.2461 35.0684L75.9068 33.1806L75.8994 33.1781L75.8921 33.1755L75.2461 35.0684ZM81.6914 34.9463L82.0759 36.909L83.5983 36.6108L83.6881 35.062L81.6914 34.9463ZM81.7891 33.2617L79.796 33.0956L79.7939 33.1208L79.7924 33.146L81.7891 33.2617ZM82.3018 32.627L82.3777 30.6284L82.2347 30.623L82.0924 30.6379L82.3018 32.627ZM86.1592 32.7734L86.442 30.7935L86.339 30.7788L86.2351 30.7749L86.1592 32.7734ZM86.5498 33.335L88.5465 33.2201L88.5444 33.1827L88.5408 33.1453L86.5498 33.335ZM86.9893 40.9766H88.9893V40.9191L88.986 40.8617L86.9893 40.9766ZM81.3984 41.0254L79.4012 40.9203L79.3929 41.0778L79.4094 41.2348L81.3984 41.0254ZM81.4717 39.6338L83.4689 39.7389L83.6037 37.1775L81.0867 37.6712L81.4717 39.6338ZM69.3379 37.168L67.7564 38.3923L67.7646 38.4028L69.3379 37.168ZM71.507 15.6333C71.9849 15.122 72.6093 14.6932 73.4254 14.3667L71.9398 10.6528C70.64 11.1727 69.5066 11.9157 68.5848 12.9018L71.507 15.6333ZM73.4498 14.3568C74.1978 14.046 75.2144 13.8506 76.5645 13.8506V9.85059C74.8547 9.85059 73.2833 10.0946 71.9154 10.6628L73.4498 14.3568ZM76.5645 13.8506C77.9115 13.8506 79.4625 14.0568 81.2307 14.4989L82.2009 10.6183C80.1931 10.1164 78.3099 9.85059 76.5645 9.85059V13.8506ZM82.0819 14.5248L86.6717 13.6703L85.9396 9.73789L81.3498 10.5924L82.0819 14.5248ZM85.9769 13.6769C85.7837 13.6447 85.4523 13.5335 85.1676 13.2203C84.8905 12.9155 84.8205 12.5981 84.8049 12.4506L88.783 12.0318C88.7349 11.5751 88.5672 11.0135 88.1273 10.5297C87.6799 10.0374 87.1206 9.81234 86.6345 9.73131L85.9769 13.6769ZM84.7962 12.3366L85.2113 21.028L89.2067 20.8372L88.7917 12.1458L84.7962 12.3366ZM85.2159 20.7665C85.2207 20.7092 85.2539 20.4288 85.4998 20.127C85.7749 19.7894 86.1303 19.6507 86.3752 19.6139L86.9686 23.5697C87.5389 23.4841 88.1466 23.2111 88.6008 22.6537C89.0257 22.1322 89.1647 21.5467 89.2021 21.0987L85.2159 20.7665ZM86.4107 19.6089L82.3335 20.146L82.8559 24.1118L86.9331 23.5747L86.4107 19.6089ZM82.5947 20.1289C82.7564 20.1289 83.2391 20.176 83.6569 20.6137C84.0581 21.034 84.082 21.4852 84.082 21.5918H80.082C80.082 22.0565 80.1914 22.7762 80.7635 23.3756C81.3522 23.9923 82.0912 24.1289 82.5947 24.1289V20.1289ZM84.082 21.5918V17.4658H80.082V21.5918H84.082ZM82.5384 15.5186C81.3317 15.2358 80.0624 15.0996 78.7373 15.0996V19.0996C79.7885 19.0996 80.749 19.2076 81.6256 19.4131L82.5384 15.5186ZM78.7373 15.0996C77.3309 15.0996 76.0047 15.331 74.8001 15.8473L76.3757 19.5238C76.994 19.2589 77.7674 19.0996 78.7373 19.0996V15.0996ZM74.788 15.8525C73.5513 16.3921 72.5372 17.2295 71.8082 18.3583L75.1684 20.5284C75.4485 20.0947 75.8341 19.7602 76.3878 19.5186L74.788 15.8525ZM71.8059 18.3618C70.5942 20.2467 70.1699 23.1072 70.1699 26.499H74.1699C74.1699 23.2177 74.6245 21.3744 75.1706 20.5249L71.8059 18.3618ZM70.1699 26.499C70.1699 29.106 70.4318 31.3363 71.0566 33.0769C71.6881 34.8361 72.7934 36.3446 74.6001 36.9612L75.8921 33.1755C75.6481 33.0923 75.2152 32.8226 74.8214 31.7254C74.4208 30.6095 74.1699 28.9051 74.1699 26.499H70.1699ZM74.5854 36.9561C75.4908 37.273 76.4701 37.4102 77.4922 37.4102V33.4102C76.8216 33.4102 76.3035 33.3195 75.9068 33.1806L74.5854 36.9561ZM77.4922 37.4102C78.8751 37.4102 80.4078 37.2357 82.0759 36.909L81.307 32.9836C79.8174 33.2753 78.5506 33.4102 77.4922 33.4102V37.4102ZM83.6881 35.062L83.7857 33.3775L79.7924 33.146L79.6948 34.8305L83.6881 35.062ZM83.7822 33.4278C83.7792 33.4635 83.7521 33.7515 83.4975 34.0667C83.2006 34.4344 82.8025 34.5853 82.5111 34.616L82.0924 30.6379C81.4917 30.7012 80.8536 30.9742 80.3858 31.5534C79.9603 32.0802 79.8315 32.6693 79.796 33.0956L83.7822 33.4278ZM82.2259 34.6255L86.0833 34.772L86.2351 30.7749L82.3777 30.6284L82.2259 34.6255ZM85.8763 34.7533C85.6889 34.7266 85.4754 34.6601 85.2657 34.5315C85.0557 34.4026 84.8974 34.2406 84.7859 34.0804C84.5799 33.7842 84.5599 33.5362 84.5588 33.5246L88.5408 33.1453C88.5071 32.7919 88.4058 32.2795 88.0695 31.7961C87.684 31.2418 87.0996 30.8875 86.442 30.7935L85.8763 34.7533ZM84.5531 33.4498L84.9926 41.0914L88.986 40.8617L88.5465 33.2201L84.5531 33.4498ZM84.9893 40.9766C84.9893 40.8629 85.0147 40.4062 85.4189 39.9818C85.8405 39.5391 86.3299 39.4893 86.501 39.4893V43.4893C86.9976 43.4893 87.7311 43.354 88.3155 42.7404C88.8825 42.145 88.9893 41.432 88.9893 40.9766H84.9893ZM86.501 39.4893H81.8135V43.4893H86.501V39.4893ZM81.8135 39.4893C82.1502 39.4893 82.6391 39.6172 83.0171 40.0397C83.3363 40.3965 83.3805 40.7501 83.3874 40.816L79.4094 41.2348C79.4489 41.6099 79.5786 42.1955 80.0361 42.7069C80.5525 43.284 81.2327 43.4893 81.8135 43.4893V39.4893ZM83.3957 41.1305L83.4689 39.7389L79.4744 39.5287L79.4012 40.9203L83.3957 41.1305ZM81.0867 37.6712C75.3974 38.7871 72.3836 37.8091 70.9112 35.9331L67.7646 38.4028C70.6867 42.1258 75.7622 42.7917 81.8566 41.5964L81.0867 37.6712ZM70.9193 35.9436C69.7683 34.4569 68.9941 31.7456 68.9941 27.3779H64.9941C64.9941 32.0272 65.7824 35.8426 67.7564 38.3923L70.9193 35.9436ZM68.9941 27.3779C68.9941 24.392 69.1255 22.2888 69.3546 20.986L65.415 20.2933C65.1232 21.9527 64.9941 24.3417 64.9941 27.3779H68.9941ZM69.3546 20.986C69.5992 19.5943 69.9015 18.4933 70.2406 17.6522L66.5309 16.1564C66.0562 17.3335 65.6911 18.7227 65.415 20.2933L69.3546 20.986ZM70.2406 17.6522C70.5612 16.8573 70.9855 16.1912 71.507 15.6333L68.5848 12.9018C67.7066 13.8413 67.0241 14.933 66.5309 16.1564L70.2406 17.6522ZM91.4814 36.0693L89.4924 35.86L89.4762 36.0143L89.4839 36.1692L91.4814 36.0693ZM95.0215 35.6055V37.6055H97.0215V35.6055H95.0215ZM95.0215 6.38184H97.0215V4.62999L95.2849 4.39926L95.0215 6.38184ZM91.5303 5.91797L91.1725 7.88571L91.2195 7.89425L91.2669 7.90055L91.5303 5.91797ZM91.1641 5.77148L89.5641 6.97148L89.6493 7.08519L89.7498 7.1857L91.1641 5.77148ZM91.0908 5.38086H93.0908V5.35145L93.09 5.32206L91.0908 5.38086ZM90.9932 2.06055H88.9932V2.08995L88.994 2.11934L90.9932 2.06055ZM91.5791 1.54785L91.3718 -0.441371L91.3514 -0.439246L91.331 -0.436704L91.5791 1.54785ZM99.0742 0.766602V-1.2334H98.9703L98.8669 -1.22262L99.0742 0.766602ZM99.6113 1.35254L101.6 1.14026L101.598 1.12235L101.596 1.10447L99.6113 1.35254ZM100.075 5.69824L102.075 5.73263L102.077 5.60896L102.064 5.48596L100.075 5.69824ZM99.7578 24.1553L97.7581 24.1209L97.7217 26.2363L99.8359 26.1537L99.7578 24.1553ZM102.883 24.0332L102.961 26.0317L103.865 25.9963L104.436 25.2934L102.883 24.0332ZM108.767 16.7822L110.32 18.0424L113.408 14.2365L108.539 14.7953L108.767 16.7822ZM105.788 17.124V19.124H105.902L106.016 19.111L105.788 17.124ZM105.397 16.6602L103.4 16.5609L103.397 16.6105V16.6602H105.397ZM105.593 12.7295L103.603 12.5305L103.598 12.5803L103.595 12.6302L105.593 12.7295ZM106.179 12.2412V14.2412H106.188L106.196 14.2411L106.179 12.2412ZM117.238 12.1436V10.1436H117.229L117.221 10.1436L117.238 12.1436ZM117.58 12.7295L119.576 12.8617L119.58 12.7956V12.7295H117.58ZM117.336 16.416L119.325 16.6254L119.329 16.5868L119.332 16.5482L117.336 16.416ZM116.945 16.8799L116.768 18.872L116.856 18.8799H116.945V16.8799ZM114.479 16.6602L114.657 14.668L113.618 14.5755L112.947 15.3745L114.479 16.6602ZM106.838 25.7666L105.306 24.481L104.288 25.6937L105.235 26.9626L106.838 25.7666ZM113.869 35.1904L112.266 36.3864L112.839 37.1543L113.796 37.1891L113.869 35.1904ZM117.897 35.3369L117.825 37.3356L117.861 37.3369H117.897V35.3369ZM118.41 35.9229L120.405 35.7773L120.404 35.767L120.403 35.7568L118.41 35.9229ZM118.654 39.2676H120.654V39.1947L120.649 39.122L118.654 39.2676ZM118.508 39.6582L119.537 41.3732L119.578 41.3487L119.617 41.3223L118.508 39.6582ZM118.093 39.7559L118.171 41.7543L118.215 41.7526L118.259 41.749L118.093 39.7559ZM110.646 40.0488V42.0488H110.686L110.725 42.0473L110.646 40.0488ZM109.987 39.5117L111.675 38.438L111.668 38.4272L111.661 38.4165L109.987 39.5117ZM102.59 28.208L104.263 27.1128L103.617 26.1246L102.439 26.2137L102.59 28.208ZM99.6846 28.4277L99.5337 26.4334L97.7168 26.5708L97.6849 28.3927L99.6846 28.4277ZM99.5625 35.3857L97.5628 35.3507L97.523 37.6173L99.7769 37.3742L99.5625 35.3857ZM102.053 35.1172V33.1172H101.945L101.838 33.1287L102.053 35.1172ZM102.443 35.5811L104.441 35.6869L104.443 35.634V35.5811H102.443ZM102.248 39.2676L104.241 39.4337L104.244 39.4036L104.245 39.3734L102.248 39.2676ZM102.102 39.6582L103.131 41.3732L103.246 41.304L103.351 41.2199L102.102 39.6582ZM101.662 39.7559L101.733 41.7546L101.774 41.7531L101.816 41.75L101.662 39.7559ZM92.0674 40.0977V42.0977H92.103L92.1386 42.0964L92.0674 40.0977ZM91.6523 39.4873L89.6548 39.5872L89.6563 39.617L89.6587 39.6468L91.6523 39.4873ZM93.4705 36.2787C93.4658 36.3225 93.4299 36.6576 93.1333 37.0097C92.7673 37.4444 92.2638 37.6055 91.8721 37.6055V33.6055C91.2524 33.6055 90.5699 33.8439 90.0737 34.4332C89.647 34.9399 89.5296 35.507 89.4924 35.86L93.4705 36.2787ZM91.8721 37.6055H95.0215V33.6055H91.8721V37.6055ZM97.0215 35.6055V6.38184H93.0215V35.6055H97.0215ZM95.2849 4.39926L91.7937 3.93539L91.2669 7.90055L94.7581 8.36441L95.2849 4.39926ZM91.888 3.95023C91.8896 3.95052 91.904 3.95315 91.9285 3.95978C91.9525 3.96627 91.9938 3.9786 92.0472 3.99998C92.1382 4.03638 92.3558 4.13484 92.5783 4.35727L89.7498 7.1857C90.271 7.7069 90.9193 7.83967 91.1725 7.88571L91.888 3.95023ZM92.7641 4.57148C92.8928 4.74309 92.9648 4.90195 93.0047 5.0082C93.0453 5.1165 93.0651 5.20411 93.0749 5.25642C93.0934 5.35525 93.0908 5.40714 93.0908 5.38086H89.0908C89.0908 5.54989 89.1004 5.76454 89.1434 5.99358C89.1807 6.19263 89.2751 6.58621 89.5641 6.97148L92.7641 4.57148ZM93.09 5.32206L92.9923 2.00175L88.994 2.11934L89.0917 5.43966L93.09 5.32206ZM92.9932 2.06055C92.9932 2.40795 92.8517 2.87213 92.4567 3.2178C92.1356 3.49874 91.8365 3.53124 91.8272 3.53241L91.331 -0.436704C90.9311 -0.386713 90.339 -0.244343 89.8226 0.207493C89.2323 0.724063 88.9932 1.42018 88.9932 2.06055H92.9932ZM91.7864 3.53707L99.2816 2.75582L98.8669 -1.22262L91.3718 -0.441371L91.7864 3.53707ZM99.0742 2.7666C98.7708 2.7666 98.3196 2.65016 97.9661 2.26454C97.669 1.9404 97.6301 1.62744 97.6268 1.60061L101.596 1.10447C101.544 0.687012 101.391 0.0810831 100.915 -0.438363C100.382 -1.0193 99.6869 -1.2334 99.0742 -1.2334V2.7666ZM97.6226 1.56482L98.0865 5.91052L102.064 5.48596L101.6 1.14026L97.6226 1.56482ZM98.0755 5.66386L97.7581 24.1209L101.758 24.1897L102.075 5.73263L98.0755 5.66386ZM99.8359 26.1537L102.961 26.0317L102.805 22.0347L99.6797 22.1568L99.8359 26.1537ZM104.436 25.2934L110.32 18.0424L107.214 15.522L101.33 22.773L104.436 25.2934ZM108.539 14.7953L105.56 15.1371L106.016 19.111L108.995 18.7692L108.539 14.7953ZM105.788 15.124C106.065 15.124 106.606 15.2225 107.025 15.7198C107.388 16.1512 107.397 16.5823 107.397 16.6602H103.397C103.397 17.0472 103.472 17.7102 103.965 18.2963C104.514 18.9482 105.251 19.124 105.788 19.124V15.124ZM107.395 16.7594L107.59 12.8287L103.595 12.6302L103.4 16.5609L107.395 16.7594ZM107.583 12.9285C107.563 13.1313 107.455 13.557 107.044 13.8997C106.66 14.2197 106.279 14.2412 106.179 14.2412V10.2412C105.72 10.2412 105.063 10.3441 104.483 10.8268C103.877 11.3323 103.656 12.0021 103.603 12.5305L107.583 12.9285ZM106.196 14.2411L117.256 14.1435L117.221 10.1436L106.161 10.2413L106.196 14.2411ZM117.238 14.1436C117.003 14.1436 116.7 14.0905 116.396 13.9167C116.091 13.7424 115.889 13.5064 115.767 13.2978C115.559 12.9408 115.58 12.6631 115.58 12.7295H119.58C119.58 12.4052 119.544 11.8346 119.222 11.2823C118.803 10.5643 118.057 10.1436 117.238 10.1436V14.1436ZM115.584 12.5973L115.34 16.2839L119.332 16.5482L119.576 12.8617L115.584 12.5973ZM115.347 16.2066C115.352 16.1629 115.388 15.8278 115.684 15.4756C116.05 15.041 116.554 14.8799 116.945 14.8799V18.8799C117.565 18.8799 118.247 18.6415 118.744 18.0522C119.17 17.5454 119.288 16.9784 119.325 16.6254L115.347 16.2066ZM117.123 14.8878L114.657 14.668L114.302 18.6523L116.768 18.872L117.123 14.8878ZM112.947 15.3745L105.306 24.481L108.37 27.0522L116.012 17.9458L112.947 15.3745ZM105.235 26.9626L112.266 36.3864L115.472 33.9944L108.441 24.5706L105.235 26.9626ZM113.796 37.1891L117.825 37.3356L117.97 33.3382L113.942 33.1918L113.796 37.1891ZM117.897 37.3369C117.596 37.3369 117.12 37.2203 116.752 36.8004C116.446 36.4497 116.419 36.1139 116.417 36.0889L120.403 35.7568C120.369 35.3412 120.24 34.7124 119.763 34.1664C119.224 33.5512 118.508 33.3369 117.897 33.3369V37.3369ZM116.415 36.0684L116.66 39.4132L120.649 39.122L120.405 35.7773L116.415 36.0684ZM116.654 39.2676C116.654 39.215 116.659 39.0398 116.745 38.8095C116.84 38.5564 117.037 38.2348 117.398 37.9941L119.617 41.3223C120.563 40.6919 120.654 39.682 120.654 39.2676H116.654ZM117.479 37.9432C117.586 37.8789 117.679 37.8396 117.741 37.8163C117.806 37.7926 117.856 37.7793 117.885 37.7724C117.94 37.7594 117.96 37.76 117.927 37.7628L118.259 41.749C118.501 41.7288 119.036 41.6734 119.537 41.3732L117.479 37.9432ZM118.014 37.7574L110.568 38.0504L110.725 42.0473L118.171 41.7543L118.014 37.7574ZM110.646 38.0488C111.136 38.0488 111.461 38.2617 111.586 38.3641C111.703 38.4592 111.725 38.517 111.675 38.438L108.3 40.5855C108.478 40.8645 108.723 41.1909 109.06 41.465C109.405 41.7464 109.945 42.0488 110.646 42.0488V38.0488ZM111.661 38.4165L104.263 27.1128L100.916 29.3032L108.314 40.6069L111.661 38.4165ZM102.439 26.2137L99.5337 26.4334L99.8354 30.422L102.741 30.2023L102.439 26.2137ZM97.6849 28.3927L97.5628 35.3507L101.562 35.4208L101.684 28.4628L97.6849 28.3927ZM99.7769 37.3742L102.267 37.1057L101.838 33.1287L99.3481 33.3973L99.7769 37.3742ZM102.053 37.1172C101.776 37.1172 101.235 37.0187 100.816 36.5214C100.453 36.09 100.443 35.6589 100.443 35.5811H104.443C104.443 35.194 104.369 34.531 103.876 33.9449C103.327 33.293 102.59 33.1172 102.053 33.1172V37.1172ZM100.446 35.4752L100.251 39.1618L104.245 39.3734L104.441 35.6869L100.446 35.4752ZM100.255 39.1015C100.256 39.0843 100.266 38.971 100.327 38.8095C100.388 38.6465 100.532 38.3522 100.852 38.0965L103.351 41.2199C104.112 40.611 104.215 39.7417 104.241 39.4337L100.255 39.1015ZM101.073 37.9432C101.191 37.8722 101.292 37.831 101.356 37.8083C101.421 37.7849 101.471 37.7726 101.497 37.7669C101.545 37.7561 101.555 37.7582 101.509 37.7618L101.816 41.75C102.045 41.7323 102.612 41.6842 103.131 41.3732L101.073 37.9432ZM101.591 37.7571L91.9962 38.0989L92.1386 42.0964L101.733 41.7546L101.591 37.7571ZM92.0674 38.0977C92.2917 38.0977 92.5669 38.1467 92.8433 38.2938C93.1192 38.4405 93.3114 38.6396 93.4344 38.8204C93.6492 39.1363 93.6508 39.3878 93.646 39.3278L89.6587 39.6468C89.6865 39.9937 89.7735 40.5504 90.1267 41.0697C90.5647 41.7139 91.277 42.0977 92.0674 42.0977V38.0977ZM93.6498 39.3874L93.4789 35.9695L89.4839 36.1692L89.6548 39.5872L93.6498 39.3874ZM139.577 39.8535L141.574 39.9629L141.722 37.2556L139.092 37.9132L139.577 39.8535ZM124.514 37.6074L126.126 36.4241L126.124 36.4214L124.514 37.6074ZM124.172 16.9043L122.438 15.9074L122.432 15.9181L122.426 15.9289L124.172 16.9043ZM131.35 12.1436L131.012 10.1723L131.008 10.1729L131.35 12.1436ZM141.726 14.0723L140.256 15.4288L141.726 14.0723ZM142.727 25.4492L144.391 26.5586L144.397 26.5498L144.402 26.541L142.727 25.4492ZM141.799 26.6211L143.268 27.9777L143.281 27.9639L143.294 27.9498L141.799 26.6211ZM139.626 27.7686L140.223 29.6775L140.232 29.6746L140.241 29.6717L139.626 27.7686ZM136.037 28.5254L136.283 30.5102L136.292 30.5092L136.3 30.5081L136.037 28.5254ZM127.37 28.916V26.916H125.21L125.376 29.0694L127.37 28.916ZM129.396 34.5312L130.739 33.0488L130.725 33.036L130.71 33.0234L129.396 34.5312ZM139.87 35.1904L140.209 37.1614L141.775 36.8919L141.867 35.3056L139.87 35.1904ZM139.943 33.9209L137.95 33.7548L137.948 33.7802L137.947 33.8057L139.943 33.9209ZM140.065 33.5303L138.816 31.9685L138.73 32.0377L138.651 32.1161L140.065 33.5303ZM140.48 33.3594L140.047 31.407L140.021 31.4127L139.995 31.4191L140.48 33.3594ZM143.996 32.5781V30.5781H143.777L143.562 30.6258L143.996 32.5781ZM144.606 33.042L142.631 33.3539L142.634 33.3718L142.637 33.3896L144.606 33.042ZM144.753 34.6777L142.757 34.7975L142.757 34.8L144.753 34.6777ZM145.021 38.4375L143.025 38.5585L143.026 38.5692L143.027 38.58L145.021 38.4375ZM145.119 39.8047L147.118 39.7248L147.116 39.6934L147.114 39.6622L145.119 39.8047ZM144.069 41.6846L143.844 39.6973L143.83 39.6989L144.069 41.6846ZM140.017 42.1729V44.1729H140.137L140.256 44.1585L140.017 42.1729ZM139.479 41.6357L137.482 41.5263L137.479 41.581V41.6357H139.479ZM137.307 23.8623L135.981 22.3643L135.974 22.3706L135.967 22.3769L137.307 23.8623ZM138.063 22.5684L136.1 22.1883L136.095 22.2139L136.091 22.2396L138.063 22.5684ZM138.015 19.0039L136.061 19.4313L136.067 19.4602L136.074 19.489L138.015 19.0039ZM137.404 17.6611L138.979 16.4285L138.968 16.4141L138.957 16.3999L137.404 17.6611ZM128.762 18.5889L130.419 19.7078L130.424 19.7008L130.429 19.6938L128.762 18.5889ZM127.297 25.3271L125.298 25.266L125.234 27.3569L127.326 27.3269L127.297 25.3271ZM139.092 37.9132C137.225 38.3801 134.757 38.6348 131.643 38.6348V42.6348C134.941 42.6348 137.763 42.3686 140.062 41.7938L139.092 37.9132ZM131.643 38.6348C128.794 38.6348 127.119 37.7777 126.126 36.4241L122.901 38.7907C124.87 41.4736 127.949 42.6348 131.643 42.6348V38.6348ZM126.124 36.4214C124.959 34.8394 124.194 32.0364 124.194 27.6221H120.194C120.194 32.3223 120.976 36.1762 122.903 38.7934L126.124 36.4214ZM124.194 27.6221C124.194 22.9518 124.85 19.792 125.918 17.8797L122.426 15.9289C120.857 18.7366 120.194 22.722 120.194 27.6221H124.194ZM125.906 17.9012C127.072 15.8737 128.916 14.5951 131.691 14.1142L131.008 10.1729C127.208 10.8314 124.267 12.7266 122.438 15.9074L125.906 17.9012ZM131.688 14.1148C132.695 13.9421 133.849 13.8506 135.158 13.8506V9.85059C133.668 9.85059 132.283 9.95437 131.012 10.1723L131.688 14.1148ZM135.158 13.8506C137.887 13.8506 139.421 14.5244 140.256 15.4288L143.195 12.7157C141.296 10.6579 138.451 9.85059 135.158 9.85059V13.8506ZM140.256 15.4288C141.144 16.3908 141.776 18.0688 141.776 20.8594H145.776C145.776 17.5627 145.042 14.716 143.195 12.7157L140.256 15.4288ZM141.776 20.8594C141.776 22.654 141.453 23.7408 141.051 24.3575L144.402 26.541C145.4 25.0092 145.776 23.0361 145.776 20.8594H141.776ZM141.062 24.3398C140.903 24.5797 140.657 24.8952 140.304 25.2924L143.294 27.9498C143.722 27.468 144.095 27.0023 144.391 26.5586L141.062 24.3398ZM140.329 25.2645C140.338 25.2552 140.268 25.3305 140.029 25.4568C139.798 25.5788 139.466 25.7184 139.011 25.8654L140.241 29.6717C141.374 29.3057 142.514 28.7949 143.268 27.9777L140.329 25.2645ZM139.029 25.8596C138.12 26.1439 137.039 26.3752 135.774 26.5427L136.3 30.5081C137.737 30.3175 139.049 30.0442 140.223 29.6775L139.029 25.8596ZM135.791 26.5406C133.811 26.7861 131.017 26.916 127.37 26.916V30.916C131.08 30.916 134.064 30.7855 136.283 30.5102L135.791 26.5406ZM125.376 29.0694C125.598 31.9524 126.327 34.5093 128.083 36.0391L130.71 33.0234C130.187 32.5675 129.566 31.381 129.364 28.7626L125.376 29.0694ZM128.054 36.0137C129.488 37.3123 131.629 37.7031 133.889 37.7031V33.7031C131.884 33.7031 131.03 33.3127 130.739 33.0488L128.054 36.0137ZM133.889 37.7031C136.005 37.7031 138.112 37.5224 140.209 37.1614L139.531 33.2194C137.657 33.542 135.776 33.7031 133.889 33.7031V37.7031ZM141.867 35.3056L141.94 34.0361L137.947 33.8057L137.873 35.0752L141.867 35.3056ZM141.936 34.087C141.936 34.0874 141.935 34.1032 141.93 34.1314C141.925 34.1588 141.915 34.2083 141.895 34.2733C141.862 34.3796 141.759 34.6648 141.48 34.9445L138.651 32.1161C138.306 32.4608 138.151 32.8437 138.077 33.0802C137.999 33.3314 137.966 33.5686 137.95 33.7548L141.936 34.087ZM141.315 35.092C141.158 35.2172 141.029 35.2729 140.992 35.2881C140.946 35.3067 140.932 35.308 140.966 35.2997L139.995 31.4191C139.733 31.4846 139.246 31.6245 138.816 31.9685L141.315 35.092ZM140.914 35.3117L144.43 34.5305L143.562 30.6258L140.047 31.407L140.914 35.3117ZM143.996 34.5781C143.909 34.5781 143.569 34.5613 143.207 34.2864C142.81 33.9845 142.668 33.5876 142.631 33.3539L146.582 32.7301C146.496 32.1871 146.228 31.5583 145.627 31.1018C145.062 30.6723 144.441 30.5781 143.996 30.5781V34.5781ZM142.637 33.3896C142.663 33.5352 142.707 33.9673 142.757 34.7975L146.749 34.5579C146.701 33.7606 146.648 33.1021 146.576 32.6944L142.637 33.3896ZM142.757 34.8C142.806 35.6073 142.856 36.3144 142.906 36.919L146.893 36.5868C146.845 36.0196 146.797 35.3432 146.749 34.5555L142.757 34.8ZM142.906 36.919C142.954 37.4913 142.994 38.0377 143.025 38.5585L147.018 38.3165C146.984 37.7631 146.942 37.1864 146.893 36.5868L142.906 36.919ZM143.027 38.58L143.124 39.9472L147.114 39.6622L147.016 38.295L143.027 38.58ZM143.121 39.8846C143.136 40.276 143.144 40.5892 143.144 40.8301H147.144C147.144 40.5175 147.134 40.1471 147.118 39.7248L143.121 39.8846ZM143.144 40.8301C143.144 40.7042 143.168 40.5203 143.262 40.3176C143.357 40.111 143.494 39.9527 143.63 39.8447C143.868 39.6556 144.025 39.6767 143.844 39.6974L144.295 43.6718C144.83 43.611 145.524 43.4491 146.12 42.9751C146.812 42.4248 147.144 41.6366 147.144 40.8301H143.144ZM143.83 39.6989L139.777 40.1872L140.256 44.1585L144.309 43.6702L143.83 39.6989ZM140.017 40.1729C140.146 40.1729 140.61 40.2065 141.028 40.6244C141.446 41.0422 141.479 41.5065 141.479 41.6357H137.479C137.479 42.1231 137.603 42.8559 138.2 43.4528C138.796 44.0497 139.529 44.1729 140.017 44.1729V40.1729ZM141.476 41.7452L141.574 39.9629L137.58 39.7441L137.482 41.5263L141.476 41.7452ZM138.632 25.3603C139.347 24.7273 139.869 23.901 140.036 22.8972L136.091 22.2396C136.09 22.2413 136.091 22.2407 136.087 22.2483C136.081 22.2588 136.055 22.2995 135.981 22.3643L138.632 25.3603ZM140.027 22.9484C140.155 22.288 140.21 21.5699 140.21 20.8105H136.21C136.21 21.3858 136.167 21.8396 136.1 22.1883L140.027 22.9484ZM140.21 20.8105C140.21 20.0056 140.134 19.2346 139.955 18.5188L136.074 19.489C136.156 19.8149 136.21 20.2483 136.21 20.8105H140.21ZM139.968 18.5765C139.798 17.7982 139.479 17.0668 138.979 16.4285L135.829 18.8937C135.916 19.0042 136.003 19.168 136.061 19.4313L139.968 18.5765ZM138.957 16.3999C137.801 14.978 136.072 14.4893 134.304 14.4893V18.4893C135.4 18.4893 135.738 18.7817 135.852 18.9223L138.957 16.3999ZM134.304 14.4893C131.308 14.4893 128.584 15.2367 127.095 17.4839L130.429 19.6938C130.795 19.1416 131.765 18.4893 134.304 18.4893V14.4893ZM127.104 17.4699C125.887 19.2724 125.397 22.016 125.298 25.266L129.296 25.3883C129.392 22.2581 129.878 20.5095 130.419 19.7078L127.104 17.4699ZM127.326 27.3269C130.203 27.2857 132.556 27.1413 134.349 26.8788C135.245 26.7477 136.049 26.5805 136.731 26.3625C137.379 26.1554 138.088 25.8503 138.646 25.3477L135.967 22.3769C136.028 22.3219 135.948 22.4135 135.514 22.5523C135.114 22.6802 134.542 22.8079 133.77 22.921C132.227 23.1468 130.071 23.2872 127.268 23.3274L127.326 27.3269ZM151.418 40.293V42.293H151.457L151.495 42.2915L151.418 40.293ZM154.421 34.9707V36.9707H156.421V34.9707H154.421ZM154.421 18.4424H156.421V16.2675L154.254 16.4494L154.421 18.4424ZM150.93 18.7354L150.805 20.7315L150.951 20.7406L151.097 20.7283L150.93 18.7354ZM150.441 18.1494L148.452 18.3549L148.459 18.4238L148.471 18.4921L150.441 18.1494ZM149.904 12.9492L147.929 12.6373L147.888 12.8951L147.915 13.1547L149.904 12.9492ZM150.49 12.4365L150.354 10.4412L150.327 10.443L150.301 10.4455L150.49 12.4365ZM157.985 11.9238V9.92383H157.917L157.849 9.92849L157.985 11.9238ZM158.425 12.4854L160.417 12.6664L160.425 12.5761V12.4854H158.425ZM158.059 16.5137L156.067 16.3326L155.524 22.2994L159.542 17.8549L158.059 16.5137ZM166.164 12.4609L166.532 14.4268L166.541 14.4251L166.551 14.4232L166.164 12.4609ZM170.803 12.9248L172.802 12.8593L172.801 12.8296L172.799 12.8L170.803 12.9248ZM171.096 21.8604H173.096V21.8276L173.095 21.7948L171.096 21.8604ZM170.729 22.3486L170.878 24.3431L170.936 24.3388L170.994 24.3311L170.729 22.3486ZM166.14 22.6904V24.6904H166.214L166.288 24.6849L166.14 22.6904ZM165.505 17.7588H167.505V15.5824L165.336 15.7659L165.505 17.7588ZM159.914 19.0283L159.149 17.1805L157.936 17.6827L157.914 18.995L159.914 19.0283ZM159.646 35.1416L157.646 35.1083L157.609 37.2993L159.795 37.136L159.646 35.1416ZM163.894 34.8242V32.8242H163.819L163.745 32.8298L163.894 34.8242ZM164.309 35.2393L162.312 35.3567L162.313 35.3645L162.313 35.3723L164.309 35.2393ZM164.577 39.2676L166.555 39.5643L166.587 39.3504L166.573 39.1345L164.577 39.2676ZM164.04 39.8047L164.117 41.8032L164.184 41.8006L164.249 41.7937L164.04 39.8047ZM151.418 38.293C151.604 38.293 151.864 38.3288 152.141 38.4675C152.427 38.6104 152.644 38.8187 152.789 39.0371C152.926 39.2421 152.981 39.4259 153.004 39.5295C153.027 39.6339 153.027 39.6999 153.027 39.707H149.027C149.027 40.0614 149.075 40.6769 149.461 41.2559C149.942 41.978 150.705 42.293 151.418 42.293V38.293ZM153.027 39.707V35.4834H149.027V39.707H153.027ZM153.027 35.4834C153.027 35.6451 152.98 36.1278 152.543 36.5456C152.122 36.9468 151.671 36.9707 151.564 36.9707V32.9707C151.1 32.9707 150.38 33.0801 149.781 33.6522C149.164 34.2409 149.027 34.9799 149.027 35.4834H153.027ZM151.564 36.9707H154.421V32.9707H151.564V36.9707ZM156.421 34.9707V18.4424H152.421V34.9707H156.421ZM154.254 16.4494L150.762 16.7424L151.097 20.7283L154.588 20.4354L154.254 16.4494ZM151.054 16.7392C151.229 16.7502 151.436 16.7953 151.647 16.9007C151.859 17.0067 152.026 17.1492 152.149 17.2963C152.267 17.4381 152.332 17.5691 152.365 17.6538C152.399 17.7379 152.41 17.7944 152.412 17.8067L148.471 18.4921C148.536 18.8662 148.686 19.3891 149.076 19.857C149.52 20.3896 150.142 20.69 150.805 20.7315L151.054 16.7392ZM152.431 17.9439L151.894 12.7437L147.915 13.1547L148.452 18.3549L152.431 17.9439ZM151.88 13.2611C151.847 13.4698 151.728 13.811 151.404 14.0943C151.099 14.3618 150.793 14.4168 150.68 14.4275L150.301 10.4455C149.846 10.4888 149.272 10.6455 148.77 11.084C148.251 11.5381 148.011 12.1194 147.929 12.6373L151.88 13.2611ZM150.627 14.4319L158.122 13.9192L157.849 9.92849L150.354 10.4412L150.627 14.4319ZM157.985 13.9238C157.675 13.9238 157.134 13.7999 156.74 13.2968C156.419 12.887 156.425 12.5043 156.425 12.4854H160.425C160.425 12.092 160.357 11.4286 159.89 10.8316C159.35 10.1414 158.589 9.92383 157.985 9.92383V13.9238ZM156.433 12.3043L156.067 16.3326L160.05 16.6947L160.417 12.6664L156.433 12.3043ZM159.542 17.8549C161.006 16.2359 163.26 15.0395 166.532 14.4268L165.796 10.4951C161.94 11.2171 158.79 12.7224 156.575 15.1725L159.542 17.8549ZM166.551 14.4232C167.51 14.2342 168.414 14.1436 169.265 14.1436V10.1436C168.13 10.1436 166.966 10.2645 165.778 10.4986L166.551 14.4232ZM169.265 14.1436C169.43 14.1436 169.53 14.1548 169.578 14.1631C169.63 14.1721 169.585 14.1714 169.488 14.122C169.383 14.0687 169.204 13.9506 169.048 13.7276C168.887 13.4961 168.819 13.2494 168.807 13.0496L172.799 12.8C172.733 11.7499 172.11 10.9672 171.3 10.5557C170.628 10.2144 169.878 10.1436 169.265 10.1436V14.1436ZM168.804 12.9903L169.097 21.9259L173.095 21.7948L172.802 12.8593L168.804 12.9903ZM169.096 21.8604C169.096 21.7579 169.113 21.3897 169.404 21.0021C169.731 20.566 170.175 20.4049 170.465 20.3662L170.994 24.3311C171.528 24.2599 172.155 24.0011 172.604 23.4021C173.017 22.8518 173.096 22.2557 173.096 21.8604H169.096ZM170.581 20.3542L165.991 20.696L166.288 24.6849L170.878 24.3431L170.581 20.3542ZM166.14 20.6904C166.149 20.6904 166.204 20.6909 166.289 20.7089C166.375 20.7271 166.512 20.767 166.668 20.8563L164.684 24.3293C165.212 24.6313 165.754 24.6904 166.14 24.6904V20.6904ZM166.668 20.8563C167.175 21.1461 167.376 21.577 167.445 21.7833C167.511 21.9804 167.505 22.1058 167.505 22.0801H163.505C163.505 22.331 163.528 22.6803 163.65 23.0482C163.776 23.4255 164.062 23.9744 164.684 24.3293L166.668 20.8563ZM167.505 22.0801V17.7588H163.505V22.0801H167.505ZM165.336 15.7659C163.058 15.9587 160.986 16.4195 159.149 17.1805L160.679 20.8761C162.064 20.3025 163.72 19.917 165.674 19.7517L165.336 15.7659ZM157.914 18.995L157.646 35.1083L161.645 35.1749L161.914 19.0616L157.914 18.995ZM159.795 37.136L164.043 36.8187L163.745 32.8298L159.496 33.1472L159.795 37.136ZM163.894 36.8242C163.675 36.8242 163.196 36.7594 162.778 36.3422C162.381 35.9444 162.321 35.505 162.312 35.3567L166.305 35.1218C166.28 34.6968 166.143 34.0499 165.607 33.5138C165.051 32.9582 164.373 32.8242 163.894 32.8242V36.8242ZM162.313 35.3723L162.582 39.4006L166.573 39.1345L166.304 35.1062L162.313 35.3723ZM162.599 38.9709C162.619 38.8374 162.699 38.5246 162.992 38.2318C163.295 37.9286 163.637 37.8361 163.831 37.8157L164.249 41.7937C164.753 41.7407 165.338 41.5424 165.82 41.0602C166.292 40.5884 166.486 40.0233 166.555 39.5643L162.599 38.9709ZM163.963 37.8062L151.341 38.2945L151.495 42.2915L164.117 41.8032L163.963 37.8062ZM194.411 19.1748L193.766 21.0679L194.08 21.1748H194.411V19.1748ZM181.154 18.3691L182.763 19.5579L182.773 19.5436L182.784 19.529L181.154 18.3691ZM181.643 22.2754L183.022 20.8271L183.003 20.8095L182.984 20.7923L181.643 22.2754ZM185.598 23.7158L185.91 21.7404L185.598 23.7158ZM190.7 24.7412L190.2 26.6776L190.213 26.6809L190.225 26.684L190.7 24.7412ZM194.216 26.1572L193.106 27.8213L193.124 27.8331L193.142 27.8445L194.216 26.1572ZM196.12 28.3301L194.28 29.1138L194.286 29.1281L194.292 29.1424L196.12 28.3301ZM194.362 38.0469L195.745 39.4918L195.753 39.4842L195.761 39.4765L194.362 38.0469ZM181.716 39.5361L182.09 37.5715L179.157 37.0129L179.756 39.9374L181.716 39.5361ZM182.131 41.5625H184.131V41.3598L184.09 41.1612L182.131 41.5625ZM181.569 42.002L181.396 40.0095L181.396 40.0095L181.569 42.002ZM177.37 42.3682V44.3682H177.457L177.544 44.3606L177.37 42.3682ZM176.345 41.416L174.354 41.6037L174.354 41.6119L174.355 41.6201L176.345 41.416ZM175.661 34.165H173.661V34.2591L173.67 34.3528L175.661 34.165ZM176.247 33.6279L176.576 35.6007L176.588 35.5987L176.6 35.5965L176.247 33.6279ZM180.056 32.9443V30.9443H179.878L179.702 30.9758L180.056 32.9443ZM180.568 33.5059L178.598 33.8485L178.599 33.8561L178.601 33.8636L180.568 33.5059ZM180.861 35.1172L178.894 35.475L179.147 36.8703L180.548 37.0925L180.861 35.1172ZM190.114 34.7266L191.408 36.2521L191.417 36.244L191.427 36.2358L190.114 34.7266ZM190.041 30.0391L189.066 31.7855L189.085 31.7958L189.104 31.8058L190.041 30.0391ZM185.915 28.9893L185.599 30.9641L185.608 30.9656L185.617 30.9669L185.915 28.9893ZM180.886 27.9395L180.318 29.857L180.328 29.8603L180.339 29.8634L180.886 27.9395ZM177.639 26.4014L178.839 24.8014L178.836 24.7994L177.639 26.4014ZM177.492 14.2676L176.092 12.839L176.086 12.8457L177.492 14.2676ZM190.163 13.6084L189.253 15.3894L193.124 17.3673L192.108 13.1407L190.163 13.6084ZM189.699 11.6797H187.699V11.9168L187.755 12.1474L189.699 11.6797ZM190.212 11.0449L190.051 9.05142L190.037 9.05257L190.022 9.05393L190.212 11.0449ZM195.046 10.6543V8.6543H194.965L194.885 8.6608L195.046 10.6543ZM195.437 11.2158L197.431 11.3597L197.437 11.2879V11.2158H195.437ZM194.899 18.6621L192.905 18.5182L192.903 18.5426L192.902 18.567L194.899 18.6621ZM195.056 17.2817C190.681 15.7908 187.289 14.9287 185.109 14.9287V18.9287C186.543 18.9287 189.352 19.564 193.766 21.0679L195.056 17.2817ZM185.109 14.9287C182.935 14.9287 180.777 15.4508 179.525 17.2093L182.784 19.529C182.899 19.3669 183.377 18.9287 185.109 18.9287V14.9287ZM179.546 17.1804C178.97 17.9602 178.739 18.8626 178.739 19.7607H182.739C182.739 19.6505 182.753 19.5915 182.76 19.5694C182.765 19.5505 182.767 19.5514 182.763 19.5579L179.546 17.1804ZM178.739 19.7607C178.739 20.4633 178.821 21.1585 179.03 21.8107L182.839 20.5916C182.788 20.4301 182.739 20.1649 182.739 19.7607H178.739ZM179.03 21.8107C179.276 22.5797 179.719 23.232 180.301 23.7585L182.984 20.7923C182.883 20.7003 182.854 20.6365 182.839 20.5916L179.03 21.8107ZM180.263 23.7237C181.423 24.8283 183.286 25.3748 185.285 25.6912L185.91 21.7404C184.003 21.4384 183.229 21.0245 183.022 20.8271L180.263 23.7237ZM185.285 25.6912C187.194 25.9934 188.829 26.3234 190.2 26.6776L191.201 22.8048C189.674 22.4104 187.908 22.0567 185.91 21.7404L185.285 25.6912ZM190.225 26.684C191.553 27.0085 192.485 27.4069 193.106 27.8213L195.325 24.4931C194.189 23.7357 192.777 23.1901 191.175 22.7984L190.225 26.684ZM193.142 27.8445C193.736 28.2223 194.081 28.6473 194.28 29.1138L197.96 27.5464C197.41 26.2551 196.486 25.2314 195.29 24.4699L193.142 27.8445ZM194.292 29.1424C194.531 29.6791 194.706 30.5067 194.706 31.7236H198.706C198.706 30.1736 198.49 28.7389 197.948 27.5178L194.292 29.1424ZM194.706 31.7236C194.706 32.8946 194.532 33.8564 194.229 34.6434L197.962 36.0793C198.474 34.7504 198.706 33.287 198.706 31.7236H194.706ZM194.229 34.6434C193.917 35.4556 193.491 36.1018 192.964 36.6172L195.761 39.4765C196.731 38.5271 197.461 37.383 197.962 36.0793L194.229 34.6434ZM192.98 36.6019C191.935 37.602 190.385 38.2197 188.063 38.2197V42.2197C191.113 42.2197 193.763 41.3889 195.745 39.4918L192.98 36.6019ZM188.063 38.2197C186.383 38.2197 184.396 38.0107 182.09 37.5715L181.342 41.5008C183.82 41.973 186.066 42.2197 188.063 42.2197V38.2197ZM179.756 39.9374L180.172 41.9638L184.09 41.1612L183.675 39.1348L179.756 39.9374ZM180.131 41.5625C180.131 41.3858 180.163 41.1513 180.279 40.9006C180.397 40.6444 180.57 40.44 180.758 40.2927C180.937 40.1525 181.104 40.0838 181.207 40.0507C181.311 40.0178 181.38 40.0108 181.396 40.0095L181.743 43.9944C182.11 43.9625 182.695 43.8563 183.223 43.4427C183.852 42.9506 184.131 42.2403 184.131 41.5625H180.131ZM181.396 40.0095L177.196 40.3757L177.544 44.3606L181.743 43.9944L181.396 40.0095ZM177.37 40.3682C177.397 40.3682 177.704 40.3801 178.011 40.6645C178.152 40.7958 178.238 40.9366 178.285 41.0466C178.307 41.0992 178.319 41.1415 178.326 41.1692C178.333 41.1967 178.334 41.2119 178.334 41.212L174.355 41.6201C174.419 42.2419 174.65 43.0023 175.289 43.5957C175.937 44.1975 176.725 44.3682 177.37 44.3682V40.3682ZM178.336 41.2283L177.652 33.9773L173.67 34.3528L174.354 41.6037L178.336 41.2283ZM177.661 34.165C177.661 34.5132 177.521 34.9537 177.159 35.2853C176.863 35.5569 176.585 35.5991 176.576 35.6007L175.918 31.6551C175.518 31.7218 174.948 31.8861 174.456 32.3367C173.899 32.8474 173.661 33.5239 173.661 34.165H177.661ZM176.6 35.5965L180.409 34.9129L179.702 30.9758L175.894 31.6594L176.6 35.5965ZM180.056 34.9443C179.69 34.9443 179.245 34.7954 178.914 34.4333C178.645 34.138 178.6 33.8617 178.598 33.8485L182.539 33.1632C182.471 32.7757 182.309 32.2186 181.868 31.7362C181.367 31.1869 180.698 30.9443 180.056 30.9443V34.9443ZM178.601 33.8636L178.894 35.475L182.829 34.7594L182.536 33.1481L178.601 33.8636ZM180.548 37.0925C182.961 37.4752 185.02 37.6787 186.696 37.6787V33.6787C185.312 33.6787 183.482 33.5078 181.175 33.1419L180.548 37.0925ZM186.696 37.6787C188.448 37.6787 190.143 37.3239 191.408 36.2521L188.821 33.201C188.588 33.3988 188.004 33.6787 186.696 33.6787V37.6787ZM191.427 36.2358C192.644 35.1772 193.237 33.7564 193.237 32.1631H189.237C189.237 32.6857 189.082 32.9738 188.802 33.2174L191.427 36.2358ZM193.237 32.1631C193.237 31.3986 193.083 30.6193 192.681 29.906C192.273 29.1823 191.676 28.6427 190.978 28.2724L189.104 31.8058C189.159 31.8353 189.183 31.8566 189.19 31.8631C189.192 31.8649 189.193 31.8662 189.194 31.8669C189.195 31.8677 189.195 31.868 189.195 31.8681C189.195 31.8681 189.195 31.8681 189.195 31.8681C189.195 31.868 189.195 31.868 189.195 31.868C189.195 31.868 189.195 31.8681 189.195 31.8682C189.195 31.8683 189.195 31.8686 189.196 31.8689C189.196 31.8696 189.205 31.8858 189.215 31.9284C189.226 31.9726 189.237 32.0481 189.237 32.1631H193.237ZM191.016 28.2927C189.958 27.7025 188.239 27.3171 186.213 27.0116L185.617 30.9669C187.692 31.2799 188.724 31.5944 189.066 31.7855L191.016 28.2927ZM186.231 27.0144C184.24 26.6958 182.647 26.3606 181.432 26.0155L180.339 29.8634C181.761 30.267 183.521 30.6317 185.599 30.9641L186.231 27.0144ZM181.454 26.0219C180.299 25.6795 179.448 25.258 178.839 24.8014L176.439 28.0014C177.523 28.8143 178.836 29.4181 180.318 29.857L181.454 26.0219ZM178.836 24.7994C177.923 24.1168 177.222 22.8115 177.222 20.2734H173.222C173.222 23.4971 174.132 26.277 176.441 28.0033L178.836 24.7994ZM177.222 20.2734C177.222 18.199 177.832 16.7449 178.899 15.6894L176.086 12.8457C174.125 14.785 173.222 17.3349 173.222 20.2734H177.222ZM178.892 15.6961C180.031 14.5796 181.726 13.8994 184.255 13.8994V9.89941C180.99 9.89941 178.176 10.798 176.092 12.839L178.892 15.6961ZM184.255 13.8994C185.535 13.8994 187.184 14.3321 189.253 15.3894L191.073 11.8274C188.683 10.6061 186.393 9.89941 184.255 9.89941V13.8994ZM192.108 13.1407L191.644 11.212L187.755 12.1474L188.219 14.0761L192.108 13.1407ZM191.699 11.6797C191.699 11.7471 191.687 12.1082 191.383 12.4847C191.047 12.9008 190.618 13.0153 190.402 13.0359L190.022 9.05393C189.464 9.10708 188.779 9.34365 188.272 9.97135C187.797 10.5595 187.699 11.2216 187.699 11.6797H191.699ZM190.373 13.0384L195.207 12.6478L194.885 8.6608L190.051 9.05142L190.373 13.0384ZM195.046 12.6543C194.872 12.6543 194.623 12.6224 194.353 12.493C194.073 12.3589 193.851 12.1585 193.697 11.9368C193.552 11.728 193.49 11.5365 193.464 11.4219C193.437 11.3076 193.437 11.2318 193.437 11.2158H197.437C197.437 10.8584 197.386 10.2345 196.981 9.65255C196.484 8.93878 195.723 8.6543 195.046 8.6543V12.6543ZM193.442 11.0719L192.905 18.5182L196.894 18.806L197.431 11.3597L193.442 11.0719ZM192.902 18.567C192.906 18.4696 192.945 18.0578 193.317 17.6673C193.72 17.2438 194.196 17.1748 194.411 17.1748V21.1748C194.935 21.1748 195.647 21.0204 196.213 20.4259C196.748 19.8646 196.876 19.1964 196.897 18.7572L192.902 18.567Z" fill="white"/>
</svg>
